<?xml version="1.0" encoding="UTF-8" standalone="no"?><!DOCTYPE svg PUBLIC "-//W3C//DTD SVG 1.1//EN" "http://www.w3.org/Graphics/SVG/1.1/DTD/svg11.dtd"><svg width="100%" height="100%" viewBox="0 0 1000 794" version="1.1" xmlns="http://www.w3.org/2000/svg" xmlns:xlink="http://www.w3.org/1999/xlink" xml:space="preserve" style="fill-rule:evenodd;clip-rule:evenodd;stroke-linecap:round;stroke-linejoin:round;stroke-miterlimit:1.41421;"><g id="Layer1"><path id="Chiruhta" d="M359.748,223.554c-0.545,-0.304 -1.6,-0.087 -2.333,-0.14c-1.152,-0.084 -3.59,0.265 -4.341,-0.146c-0.68,-0.372 -0.217,-1.699 -0.165,-2.32c0.042,-0.495 0.276,-0.957 0.48,-1.41c0.36,-0.802 1.361,-2.46 1.681,-3.399c0.241,-0.709 0.635,-2.074 0.236,-2.236c-0.399,-0.162 -1.917,0.603 -2.628,1.266c-0.764,0.711 -1.293,2.007 -1.954,3.001c-0.661,0.995 -1.143,2.806 -2.015,2.969c-0.872,0.163 -2.237,-1.266 -3.217,-1.991c-0.953,-0.706 -1.577,-1.883 -2.662,-2.362c-1.305,-0.575 -3.563,-0.986 -5.167,-1.088c-1.492,-0.094 -3.168,0.228 -4.46,0.479c-1.128,0.219 -2.38,0.327 -3.292,1.027c-0.936,0.719 -1.596,2.392 -2.324,3.284c-0.614,0.751 -1.382,1.362 -2.048,2.067c-0.68,0.719 -1.307,1.585 -2.03,2.245c-0.708,0.646 -1.718,1.092 -2.307,1.716c-0.541,0.575 -1.217,1.388 -1.222,2.03c-0.005,0.643 0.691,1.298 1.191,1.824c0.646,0.678 2.067,1.561 2.684,2.245c0.474,0.524 0.863,1.167 1.023,1.855c0.191,0.817 -0.179,2.32 0.121,3.046c0.271,0.655 1.057,0.967 1.678,1.308c0.666,0.366 1.789,0.431 2.316,0.887c0.511,0.442 0.865,1.169 0.844,1.846c-0.023,0.735 -0.618,1.737 -0.984,2.567c-0.362,0.823 -0.669,1.692 -1.21,2.41c-0.566,0.752 -1.38,1.488 -2.183,2.098c-0.866,0.658 -2.029,1.281 -3.009,1.847c-0.941,0.545 -2.12,0.986 -2.871,1.552c-0.655,0.494 -1.099,1.219 -1.631,1.843c-0.652,0.765 -1.634,1.84 -2.279,2.743c-0.604,0.843 -0.949,1.914 -1.593,2.672c-0.636,0.748 -1.422,1.384 -2.272,1.875c-0.873,0.502 -2.186,1.354 -2.962,1.141c-0.776,-0.213 -1.176,-1.601 -1.693,-2.418c-0.509,-0.806 -1.184,-1.562 -1.408,-2.488c-0.285,-1.178 -0.028,-3.235 -0.305,-4.582c-0.251,-1.225 -1.423,-2.25 -1.353,-3.498c0.077,-1.393 1.336,-3.548 1.82,-4.86c0.368,-1 1.318,-1.972 1.08,-3.012c-0.283,-1.231 -2.094,-3.032 -2.777,-4.377c-0.592,-1.166 -0.825,-2.524 -1.323,-3.695c-0.485,-1.141 -1.605,-2.097 -1.662,-3.328c-0.056,-1.231 0.913,-2.744 1.323,-4.057c0.396,-1.268 1.125,-2.49 1.137,-3.818c0.016,-1.598 -0.42,-4.532 -1.045,-5.77c-0.476,-0.943 -1.869,-1.102 -2.704,-1.654c-0.789,-0.523 -1.972,-0.89 -2.306,-1.659c-0.334,-0.768 0.346,-1.981 0.305,-2.95c-0.042,-0.969 -0.35,-1.986 -0.556,-2.862c-0.189,-0.808 -0.535,-1.577 -0.678,-2.395c-0.154,-0.875 0.064,-2.47 -0.243,-2.854c-0.308,-0.384 -1.196,0.275 -1.601,0.551c-0.381,0.26 -0.638,0.688 -0.829,1.107c-0.2,0.44 -0.485,1.019 -0.37,1.532c0.122,0.545 0.999,1.061 1.103,1.739c0.153,0.997 -0.093,2.828 -0.185,4.239c-0.098,1.495 0.009,3.679 -0.401,4.729c-0.315,0.804 -1.199,1.579 -2.064,1.57c-0.991,-0.011 -2.902,-0.943 -3.883,-1.635c-0.878,-0.62 -1.31,-1.704 -2.005,-2.523c-0.849,-0.999 -1.912,-2.732 -3.089,-3.47c-1.152,-0.723 -2.928,-0.736 -3.968,-0.956c-0.752,-0.16 -1.605,-0.742 -2.276,-0.367c-0.79,0.443 -2.078,1.96 -2.468,3.024c-0.386,1.052 -0.261,2.554 0.127,3.359c0.384,0.795 1.617,0.81 2.203,1.469c0.629,0.708 1.077,1.836 1.573,2.777c0.509,0.965 1.384,2.015 1.481,3.016c0.097,1 -0.629,2.338 -0.898,2.989c-0.149,0.358 -0.33,0.919 -0.718,0.915c-0.412,-0.004 -1.126,-1.158 -1.753,-0.941c-0.835,0.287 -2.442,1.883 -3.256,2.667c-0.626,0.603 -1.195,1.489 -1.628,2.036c-0.328,0.413 -0.574,0.903 -0.973,1.247c-0.572,0.494 -1.65,1.633 -2.455,1.715c-0.806,0.082 -1.793,-0.548 -2.378,-1.22c-0.651,-0.749 -1.251,-2.101 -1.53,-3.272c-0.343,-1.442 -0.337,-3.877 -0.529,-5.379c-0.156,-1.218 -0.173,-2.49 -0.624,-3.632c-0.459,-1.163 -1.849,-2.18 -2.13,-3.343c-0.282,-1.163 0.642,-2.64 0.439,-3.636c-0.191,-0.937 -0.814,-1.889 -1.656,-2.342c-1.111,-0.6 -3.31,-0.994 -5.013,-1.256c-1.836,-0.281 -4.475,0.06 -6.005,-0.434c-1.289,-0.416 -2.017,-1.963 -3.179,-2.531c-1.162,-0.568 -2.502,-1.015 -3.793,-0.878c-1.337,0.141 -3.147,1.072 -4.232,1.726c-0.904,0.545 -1.414,1.591 -2.277,2.198c-1.078,0.758 -3.081,1.651 -4.19,2.35c-0.868,0.547 -1.831,1.037 -2.464,1.844c-0.676,0.861 -1.061,2.264 -1.593,3.323c-0.512,1.02 -0.851,2.22 -1.597,3.028c-0.746,0.809 -2.2,0.911 -2.879,1.821c-0.773,1.035 -1.198,2.977 -1.758,4.393c-0.539,1.365 -1.288,2.668 -1.6,4.103c-0.313,1.441 0.031,3.078 -0.279,4.543c-0.309,1.464 -0.96,2.925 -1.578,4.243c-0.599,1.28 -1.256,2.555 -2.126,3.668c-0.896,1.148 -2.412,2.201 -3.252,3.217c-0.72,0.872 -0.85,2.249 -1.785,2.883c-1.018,0.69 -2.989,1.058 -4.319,1.256c-1.208,0.18 -2.454,-0.24 -3.663,-0.067c-1.232,0.176 -2.456,0.888 -3.727,1.122c-1.27,0.234 -2.613,0.237 -3.896,0.282c-1.267,0.045 -2.562,0.248 -3.803,-0.011c-1.481,-0.31 -3.394,-1.215 -5.082,-1.845c-1.892,-0.706 -4.518,-1.682 -6.267,-2.389c-1.426,-0.575 -3.014,-1.276 -4.227,-1.849c-1.036,-0.489 -2.105,-1.061 -3.05,-1.587c-0.889,-0.496 -1.737,-1.062 -2.619,-1.572c-1.076,-0.622 -2.7,-1.65 -3.838,-2.163c-0.951,-0.429 -2.127,-0.551 -2.99,-0.919c-0.778,-0.333 -1.536,-0.97 -2.186,-1.293c-0.549,-0.273 -1.153,-0.413 -1.719,-0.647c-0.634,-0.262 -1.336,-0.8 -2.087,-0.926c-1,-0.169 -2.624,0.102 -3.915,-0.087c-1.323,-0.193 -3.005,-0.747 -4.021,-1.074c-0.715,-0.23 -1.375,-0.608 -2.074,-0.884c-0.853,-0.336 -2.136,-0.817 -3.044,-1.136c-0.794,-0.28 -1.583,-0.59 -2.403,-0.781c-0.877,-0.203 -1.895,-0.407 -2.858,-0.442c-1.232,-0.044 -3.593,-0.015 -4.534,0.177c-0.484,0.099 -0.641,0.831 -1.112,0.976c-0.546,0.168 -1.603,-0.182 -2.163,0.03c-0.536,0.202 -0.764,1.031 -1.195,1.237c-0.417,0.2 -0.996,-0.154 -1.388,0.002c-0.393,0.156 -0.529,0.838 -0.967,0.936c-0.558,0.123 -1.671,0.107 -2.379,-0.194c-0.709,-0.301 -1.109,-1.301 -1.871,-1.613c-0.778,-0.318 -1.875,-0.236 -2.794,-0.295c-0.905,-0.058 -1.996,0.091 -2.719,-0.059c-0.594,-0.123 -1.022,-0.711 -1.615,-0.84c-0.738,-0.16 -2.183,0.08 -2.811,-0.122c-0.46,-0.147 -0.726,-0.672 -0.956,-1.088c-0.231,-0.417 -0.377,-0.922 -0.427,-1.411c-0.064,-0.618 -0.126,-1.728 0.044,-2.295c0.14,-0.469 0.764,-0.672 0.973,-1.103c0.209,-0.431 0.213,-1.009 0.281,-1.484c0.066,-0.452 0.151,-0.908 0.131,-1.365c-0.026,-0.6 -0.112,-1.506 -0.289,-2.237c-0.204,-0.849 -0.85,-1.855 -0.939,-2.851c-0.103,-1.157 0.155,-3.094 0.321,-4.087c0.109,-0.655 0.372,-1.354 0.674,-1.875c0.282,-0.488 0.784,-0.812 1.134,-1.253c0.513,-0.644 1.64,-1.614 1.942,-2.612c0.301,-0.997 -0.102,-2.354 -0.133,-3.372c-0.027,-0.911 0.099,-2.089 -0.051,-2.733c-0.107,-0.459 -0.784,-0.664 -0.85,-1.131c-0.135,-0.965 -0.156,-3.654 0.04,-4.656c0.113,-0.579 0.758,-0.902 1.134,-1.356c0.498,-0.6 1.58,-1.315 1.853,-2.247c0.285,-0.972 -0.355,-2.657 -0.144,-3.587c0.181,-0.795 1.089,-1.25 1.413,-1.997c0.324,-0.747 0.213,-1.699 0.53,-2.484c0.446,-1.101 1.475,-3.021 2.142,-4.121c0.536,-0.884 1.715,-1.678 1.86,-2.482c0.145,-0.803 -0.648,-1.623 -0.987,-2.339c-0.316,-0.668 -0.896,-1.233 -1.044,-1.957c-0.151,-0.735 0.041,-1.668 0.142,-2.451c0.097,-0.759 0.221,-1.681 0.46,-2.25c0.196,-0.465 0.605,-0.815 0.973,-1.16c0.613,-0.576 1.877,-1.45 2.705,-2.295c0.836,-0.853 1.816,-1.786 2.31,-2.823c0.493,-1.037 0.588,-2.248 0.651,-3.4c0.086,-1.555 0.177,-4.598 -0.14,-5.931c-0.209,-0.881 -1.216,-1.346 -1.759,-2.07c-0.691,-0.922 -1.489,-2.383 -2.386,-3.459c-0.897,-1.077 -2.188,-2.145 -2.999,-3.006c-0.652,-0.693 -1.555,-1.579 -1.866,-2.159c-0.208,-0.388 0.16,-0.912 0,-1.322c-0.254,-0.653 -1.182,-1.801 -1.524,-2.592c-0.293,-0.679 -0.327,-1.466 -0.528,-2.157c-0.196,-0.672 -0.528,-1.347 -0.678,-1.989c-0.142,-0.609 -0.358,-1.269 -0.224,-1.864c0.134,-0.594 0.695,-1.237 1.028,-1.702c0.283,-0.394 0.509,-0.931 0.969,-1.086c0.5,-0.169 1.513,-0.119 2.029,0.074c0.476,0.177 0.629,0.83 1.069,1.083c0.46,0.264 1.115,0.382 1.69,0.501c0.739,0.152 1.991,0.191 2.739,0.412c0.631,0.186 1.243,0.494 1.75,0.914c0.576,0.476 1.131,1.64 1.709,1.944c0.518,0.274 1.335,0.117 1.755,-0.116c0.42,-0.233 0.497,-0.861 0.764,-1.28c0.371,-0.581 1.056,-1.761 1.459,-2.208c0.237,-0.264 0.643,-0.641 0.956,-0.471c0.333,0.181 0.708,1.032 1.044,1.559c0.378,0.594 0.847,1.392 1.223,2.001c0.341,0.553 0.591,1.25 1.033,1.653c0.441,0.403 1.025,0.827 1.619,0.766c0.615,-0.062 1.439,-0.835 2.076,-1.143c0.567,-0.274 1.278,-0.291 1.75,-0.707c0.661,-0.583 1.825,-1.936 2.219,-2.79c0.327,-0.709 -0.096,-1.798 0.144,-2.336c0.214,-0.48 0.801,-0.726 1.297,-0.897c0.496,-0.172 1.179,0.124 1.678,-0.133c0.561,-0.29 1.204,-1.127 1.692,-1.606c0.42,-0.412 0.682,-1.062 1.233,-1.265c0.551,-0.204 1.381,0.058 2.072,0.042c1.329,-0.03 4.75,-0.072 5.905,-0.222c0.406,-0.053 0.686,-0.448 1.026,-0.678c0.43,-0.291 0.963,-0.864 1.558,-1.07c0.621,-0.216 1.467,-0.159 2.169,-0.223c0.68,-0.062 1.503,0.17 2.042,-0.16c0.54,-0.331 0.889,-1.165 1.194,-1.824c0.398,-0.86 0.831,-2.476 1.194,-3.337c0.27,-0.637 0.841,-1.149 0.987,-1.825c0.17,-0.782 -0.306,-2.097 0.03,-2.866c0.336,-0.769 1.136,-1.511 1.985,-1.749c1.107,-0.312 3.65,0.198 4.654,-0.118c0.714,-0.225 0.887,-1.208 1.37,-1.78c0.72,-0.852 1.988,-2.469 2.949,-3.332c0.836,-0.751 1.741,-1.536 2.82,-1.848c1.31,-0.378 3.407,-0.35 5.037,-0.42c1.578,-0.068 3.549,0.243 4.74,0c0.919,-0.187 1.775,-0.764 2.409,-1.455c0.742,-0.808 1.579,-2.484 2.042,-3.393c0.33,-0.65 0.534,-1.36 0.734,-2.061c0.331,-1.161 0.347,-3.661 1.252,-4.908c0.905,-1.248 2.716,-1.847 4.181,-2.579c1.621,-0.81 4.139,-1.551 5.55,-2.282c1.064,-0.552 1.943,-1.404 2.915,-2.105c1.36,-0.981 3.568,-2.617 5.245,-3.778c1.584,-1.097 3.267,-2.336 4.82,-3.19c1.429,-0.786 3.044,-1.611 4.495,-1.933c1.369,-0.304 3.093,0.164 4.208,0c0.881,-0.13 1.941,-0.526 2.481,-0.988c0.492,-0.419 0.251,-1.388 0.763,-1.782c0.616,-0.473 1.949,-0.995 2.931,-1.055c0.981,-0.061 2.227,0.257 2.956,0.692c0.682,0.408 0.838,1.371 1.412,1.921c0.738,0.708 2.033,1.634 3.017,2.328c0.933,0.658 2.059,1.331 2.888,1.838c0.686,0.42 1.406,0.784 2.088,1.208c0.848,0.528 2.044,1.494 2.999,1.958c0.856,0.416 1.83,0.523 2.733,0.825c0.943,0.317 2.013,0.593 2.928,1.074c0.915,0.481 1.675,1.293 2.562,1.81c0.876,0.512 1.798,1.078 2.756,1.293c0.958,0.216 2.158,-0.344 2.991,0c0.833,0.344 1.061,1.9 2.006,2.063c1.684,0.291 6.235,-0.72 8.098,-0.316c1.342,0.291 2.076,1.876 3.076,2.739c0.962,0.829 1.858,1.754 2.927,2.44c1.164,0.748 2.903,1.521 4.061,2.047c0.938,0.425 1.924,0.74 2.887,1.105c1.032,0.39 2.202,0.823 3.302,1.238c1.327,0.501 3.062,1.534 4.665,1.766c1.603,0.232 3.358,-0.82 4.953,-0.375c1.688,0.473 3.533,2.037 5.179,3.208c1.644,1.169 3.09,2.597 4.698,3.816c1.696,1.285 3.925,2.282 5.477,3.898c1.678,1.748 3.388,4.867 4.592,6.587c0.874,1.248 1.39,2.857 2.636,3.734c1.344,0.946 3.708,1.759 5.431,1.944c1.65,0.177 3.315,-0.37 4.909,-0.834c2.372,-0.692 6.941,-2.305 9.325,-3.317c1.747,-0.742 3.326,-2.104 4.981,-2.758c1.577,-0.622 3.334,-0.657 4.95,-1.166c1.62,-0.51 3.124,-1.429 4.771,-1.893c1.808,-0.51 4.042,-0.835 6.078,-1.166c2.097,-0.342 4.366,-0.765 6.503,-0.882c2.103,-0.116 4.499,-0.174 6.318,0.18c1.634,0.318 3.02,1.417 4.599,1.944c1.811,0.604 4.313,1.561 6.269,1.681c1.846,0.113 3.749,-0.947 5.465,-0.961c1.636,-0.014 3.244,1.277 4.83,0.875c1.81,-0.458 4.481,-2.878 6.026,-3.626c1.008,-0.488 2.147,-1.079 3.246,-0.866c1.21,0.235 3.045,1.257 4.014,2.273c0.97,1.016 1.145,2.624 1.802,3.825c0.641,1.171 1.283,2.802 2.143,3.382c0.834,0.564 2.09,0.098 3.017,0.102c0.849,0.004 1.777,-0.436 2.545,-0.076c0.833,0.391 1.636,1.613 2.453,2.422c0.986,0.976 2.236,2.37 3.464,3.436c1.443,1.252 3.792,3.338 5.192,4.076c0.952,0.502 2.373,-0.323 3.208,0.354c1.184,0.96 2.465,3.705 3.891,5.406c1.632,1.944 3.844,4.261 5.898,6.263c2.359,2.3 6.123,5.569 8.257,7.536c1.527,1.408 2.959,2.921 4.542,4.267c1.896,1.613 4.867,3.667 6.833,5.41c1.767,1.566 3.914,2.993 4.966,5.048c1.052,2.055 0.926,4.962 1.345,7.283c0.399,2.213 0.835,4.615 1.166,6.644c0.3,1.839 0.846,3.667 0.818,5.531c-0.033,2.192 -1.102,5.23 -1.014,7.621c0.084,2.298 0.699,4.718 1.542,6.723c0.822,1.955 2.533,3.796 3.515,5.304c0.807,1.239 1.714,2.423 2.38,3.744c0.753,1.494 1.19,4.2 2.143,5.221c0.838,0.898 2.795,0.149 3.571,0.905c0.776,0.756 1.168,2.575 1.085,3.632c-0.083,1.043 -1.266,1.712 -1.584,2.709c-0.349,1.091 -0.851,2.886 -0.506,3.838c0.345,0.951 1.678,1.306 2.576,1.871c1.04,0.654 2.807,0.945 3.665,2.052c0.96,1.239 0.902,3.872 2.095,5.383c1.316,1.664 4.115,3.688 5.796,4.604c1.282,0.699 3.099,0.29 4.289,0.894c1.174,0.595 2.716,1.955 2.851,2.73c0.135,0.775 -1.384,1.256 -2.042,1.919c-0.827,0.833 -1.811,2.325 -2.921,3.079c-1.104,0.75 -2.528,0.935 -3.736,1.441c-1.185,0.496 -2.391,1.076 -3.509,1.593c-1.07,0.495 -2.308,0.828 -3.199,1.508c-0.887,0.678 -1.738,1.581 -2.146,2.573c-0.408,0.993 -0.368,2.253 -0.3,3.382c0.069,1.15 0.83,2.325 0.716,3.515c-0.133,1.375 -0.942,3.668 -1.512,4.735c-0.397,0.745 -1.561,0.899 -1.904,1.671c-0.463,1.042 -0.742,3.035 -0.873,4.585c-0.146,1.715 0.184,4.216 0,5.706c-0.139,1.131 -0.485,2.278 -1.102,3.236c-0.764,1.187 -2.52,2.747 -3.483,3.881c-0.802,0.945 -1.619,1.888 -2.294,2.927c-0.699,1.079 -1.172,2.421 -1.905,3.545c-0.78,1.197 -1.847,2.472 -2.779,3.642c-0.912,1.145 -1.762,2.471 -2.809,3.376c-1.018,0.879 -2.301,1.395 -3.474,2.054c-1.294,0.726 -3.064,1.722 -4.288,2.302c-0.987,0.468 -2.072,0.71 -3.058,1.181c-1.462,0.7 -4.417,2.281 -5.716,3.018c-0.727,0.412 -1.406,0.905 -2.076,1.405c-0.742,0.552 -1.715,1.321 -2.373,1.911c-0.563,0.505 -1.229,0.96 -1.576,1.631c-0.412,0.798 -0.602,2.102 -0.896,3.154c-0.311,1.113 -0.477,2.579 -0.972,3.526c-0.455,0.869 -1.197,1.595 -2,2.159c-0.89,0.624 -2.307,1.207 -3.336,1.585c-0.914,0.336 -1.867,0.664 -2.841,0.682c-1.172,0.022 -2.786,-0.45 -4.192,-0.553c-1.556,-0.114 -3.614,0.1 -5.14,-0.132c-1.389,-0.212 -3.035,-0.744 -4.021,-1.262c-0.78,-0.41 -1.246,-1.249 -1.895,-1.846c-0.702,-0.645 -1.655,-1.443 -2.316,-2.026c-0.553,-0.488 -1.362,-0.795 -1.651,-1.473c-0.401,-0.94 -0.377,-2.994 -0.752,-4.166c-0.329,-1.027 -0.916,-2.081 -1.5,-2.865c-0.541,-0.728 -1.492,-1.097 -2.003,-1.841c-0.51,-0.744 -0.595,-1.802 -1.059,-2.624c-0.571,-1.009 -1.479,-2.359 -2.362,-3.43c-0.883,-1.071 -1.982,-1.976 -2.936,-2.999c-0.968,-1.039 -2.253,-2.083 -2.874,-3.232c-0.596,-1.104 -0.426,-2.485 -0.853,-3.664c-0.522,-1.442 -1.426,-3.582 -2.281,-4.985c-0.773,-1.269 -1.678,-2.662 -2.847,-3.43c-1.169,-0.768 -2.962,-1.072 -4.168,-1.175c-1.035,-0.089 -2.153,0.15 -3.067,0.554c-0.915,0.404 -1.777,1.097 -2.421,1.87c-0.645,0.773 -0.924,2.081 -1.447,2.767c-0.438,0.575 -1.025,1.079 -1.694,1.351c-0.715,0.292 -1.795,0.385 -2.602,0.4c-0.752,0.015 -1.545,-0.607 -2.236,-0.307c-0.741,0.322 -1.512,1.595 -2.212,2.239c-0.63,0.58 -1.272,1.155 -1.987,1.625c-0.746,0.49 -1.575,1.107 -2.49,1.32c-0.991,0.23 -2.308,-0.006 -3.46,0.061c-1.387,0.082 -3.477,0.562 -4.861,0.428c-1.214,-0.118 -2.4,-0.75 -3.445,-1.232c-0.99,-0.457 -2.233,-0.844 -2.821,-1.658c-0.588,-0.814 -0.488,-2.147 -0.704,-3.226c-0.225,-1.121 -0.746,-2.319 -0.647,-3.502c0.108,-1.292 0.903,-3.038 1.293,-4.249c0.326,-1.012 1.321,-1.985 1.047,-3.013c-0.312,-1.167 -2.409,-2.454 -2.916,-3.991c-0.506,-1.538 0.47,-4.074 -0.123,-5.234c-0.582,-1.14 -2.418,-1.307 -3.432,-1.727c-0.851,-0.353 -2.236,-0.318 -2.648,-0.793c-0.411,-0.474 -0.271,-1.537 0.181,-2.055c0.615,-0.703 2.632,-1.321 3.507,-2.16c0.809,-0.775 1.455,-1.789 1.744,-2.871c0.352,-1.318 0.314,-3.355 0.369,-5.038c0.06,-1.832 -0.095,-4.139 -0.01,-5.95c0.078,-1.647 0.197,-3.496 0.524,-4.919c0.291,-1.265 1.497,-2.596 1.439,-3.617c-0.057,-1.022 -1.643,-1.496 -1.785,-2.514c-0.169,-1.206 0.577,-3.411 0.771,-4.723c0.086,-0.577 0.169,-1.155 0.242,-1.733c0.381,-0.02 0.784,-0.065 1.108,-0.057c0.742,0.019 1.486,-0.107 2.226,-0.059c0.904,0.059 2.4,0.567 3.194,0.411c0.678,-0.134 1.064,-0.883 1.574,-1.349c0.555,-0.508 1.151,-1.159 1.756,-1.695c0.604,-0.534 1.565,-0.858 1.878,-1.522c0.313,-0.663 0.204,-1.832 0,-2.46c-0.185,-0.569 -0.629,-1.272 -1.225,-1.31c-0.751,-0.047 -2.286,0.714 -3.282,1.027c-0.899,0.282 -1.784,0.611 -2.695,0.851c-0.987,0.259 -2.399,0.419 -3.224,0.707c-0.407,0.142 -0.849,0.327 -1.213,0.569ZM440.774,221.257c-0.655,0.216 -1.478,1.126 -2.034,1.856c-0.581,0.762 -1.319,1.701 -1.454,2.72c-0.142,1.069 0.064,2.659 0.602,3.693c0.538,1.033 1.92,1.888 2.625,2.508c0.504,0.442 0.954,1.054 1.606,1.209c0.721,0.171 2.09,0.388 2.72,-0.182c0.631,-0.571 0.789,-2.136 1.061,-3.239c0.283,-1.146 0.606,-2.574 0.636,-3.637c0.027,-0.925 0.159,-2.046 -0.454,-2.739c-0.645,-0.728 -2.529,-1.268 -3.414,-1.633c-0.608,-0.251 -1.269,-0.763 -1.894,-0.556ZM432.046,219.821c0.62,0.251 1.861,1.048 2.179,1.723c0.318,0.675 -0.024,1.586 -0.269,2.326c-0.247,0.745 -0.799,1.707 -1.212,2.144c-0.311,0.329 -1.003,0.795 -1.27,0.482c-0.267,-0.314 -0.026,-1.628 -0.333,-2.36c-0.312,-0.745 -1.436,-1.427 -1.542,-2.11c-0.105,-0.684 0.501,-1.626 0.909,-1.993c0.385,-0.347 1.059,-0.407 1.538,-0.212ZM433.225,211.703c0.626,0.178 1.406,1.166 1.879,1.928c0.474,0.766 0.76,2.048 0.966,2.663c0.112,0.336 0.592,0.932 0.269,1.027c-0.324,0.095 -1.558,-0.102 -2.209,-0.454c-0.651,-0.353 -1.177,-1.296 -1.697,-1.664c-0.414,-0.293 -0.913,-0.559 -1.42,-0.545c-0.732,0.02 -1.993,0.392 -2.97,0.667c-1.059,0.298 -2.307,0.687 -3.387,1.121c-1.06,0.426 -2.208,1.421 -3.091,1.481c-0.824,0.056 -2.047,-0.444 -2.208,-1.121c-0.161,-0.677 0.492,-2.185 1.242,-2.939c0.773,-0.778 2.309,-1.339 3.394,-1.728c0.997,-0.357 2.061,-0.536 3.118,-0.606c1.074,-0.071 2.624,0.01 3.329,0.182c0.402,0.098 0.492,0.85 0.906,0.848c0.464,-0.002 1.252,-1.038 1.879,-0.86ZM347.029,193.567c0.882,0.359 2.044,1.649 1.976,2.131c-0.068,0.481 -1.748,0.466 -2.383,0.761c-0.527,0.245 -0.861,0.864 -1.425,1.007c-0.588,0.149 -1.634,0.215 -2.102,-0.112c-0.467,-0.327 -0.804,-1.215 -0.701,-1.85c0.102,-0.634 0.593,-1.654 1.319,-1.958c0.773,-0.322 2.434,-0.337 3.316,0.021ZM354.269,194.953c-0.711,0.321 -1.44,-1.682 -2.127,-2.551c-0.775,-0.981 -2.044,-2.482 -2.526,-3.337c-0.3,-0.532 -0.449,-1.189 -0.365,-1.793c0.098,-0.706 0.645,-1.623 0.954,-2.439c0.383,-1.01 0.653,-3.278 1.344,-3.618c0.692,-0.34 1.995,0.918 2.804,1.579c0.809,0.661 1.648,1.417 2.049,2.386c0.413,0.996 0.424,2.707 0.425,3.59c0,0.585 -0.197,1.164 -0.421,1.705c-0.426,1.031 -1.427,4.157 -2.137,4.478ZM358.91,175.405c-0.12,0.634 -0.991,1.043 -1.636,1.032c-0.737,-0.011 -1.975,-0.52 -2.785,-1.104c-0.85,-0.612 -1.767,-1.555 -2.315,-2.57c-0.589,-1.089 -0.591,-2.732 -1.216,-3.964c-0.667,-1.315 -2.147,-2.696 -2.785,-3.925c-0.553,-1.067 -1.118,-2.323 -1.041,-3.451c0.077,-1.128 0.918,-2.693 1.502,-3.317c0.465,-0.497 1.514,-0.904 1.998,-0.424c0.69,0.684 1.431,3.307 2.145,4.532c0.594,1.019 1.371,1.957 2.137,2.82c0.754,0.85 1.897,1.373 2.458,2.361c0.565,0.992 0.697,2.378 0.93,3.594c0.256,1.335 0.779,3.508 0.608,4.416Z" style="fill:#fff;stroke-width:0.75px;stroke:#422b15;"/><path id="Uanduk" d="M332.373,457.12c0.435,-0.768 3.071,-1.214 4.683,-1.528c2.076,-0.404 5.539,-0.716 7.777,-0.897c1.878,-0.153 4.041,0.789 5.65,-0.191c1.668,-1.017 3.14,-4.325 4.357,-5.907c0.942,-1.226 2.062,-2.988 2.941,-3.585c0.642,-0.437 1.704,0.42 2.33,0c0.626,-0.42 0.707,-2.075 1.426,-2.521c0.72,-0.446 2.09,0.381 2.892,-0.156c0.928,-0.623 1.327,-2.954 2.68,-3.581c1.593,-0.738 4.9,0.348 6.878,-0.845c2.204,-1.33 4.709,-5.324 6.348,-7.134c1.141,-1.262 1.925,-3.047 3.484,-3.729c1.644,-0.721 4.296,-0.131 6.382,-0.593c2.091,-0.462 4.629,-1.008 6.164,-2.182c1.519,-1.161 1.292,-4.102 3.047,-4.861c1.993,-0.861 7.307,0.413 8.912,-0.308c1.242,-0.558 0.424,-2.691 0.721,-4.019c0.351,-1.567 1.229,-3.717 1.385,-5.383c0.143,-1.538 0.15,-3.189 -0.451,-4.611c-0.614,-1.451 -2.669,-2.497 -3.233,-4.096c-0.565,-1.599 0.319,-3.728 -0.155,-5.499c-0.576,-2.153 -2.23,-5.199 -3.303,-7.42c-0.968,-2.006 -2.582,-4.184 -3.129,-5.905c-0.447,-1.406 0.515,-3.109 -0.155,-4.424c-0.771,-1.515 -3.745,-3.217 -4.475,-4.669c-0.605,-1.205 -0.442,-2.808 0.097,-4.044c0.58,-1.333 3.045,-2.539 3.387,-3.954c0.343,-1.415 -0.609,-3.136 -1.332,-4.536c-0.881,-1.71 -2.82,-3.935 -3.96,-5.719c-1.033,-1.616 -2.706,-3.545 -2.878,-4.983c-0.161,-1.353 1.357,-2.375 1.848,-3.645c0.505,-1.31 0.333,-3.466 1.185,-4.212c0.852,-0.746 3.113,-0.844 3.929,-0.264c0.816,0.581 0.553,2.526 0.966,3.748c0.539,1.594 1.518,4.029 2.267,5.815c0.693,1.654 1.206,3.714 2.227,4.9c0.974,1.132 2.407,2.089 3.896,2.215c1.55,0.13 3.672,-0.961 5.403,-1.43c1.664,-0.451 3.496,-0.513 4.983,-1.385c1.68,-0.985 3.4,-3.362 5.094,-4.527c1.55,-1.064 3.291,-1.866 5.075,-2.46c1.976,-0.657 5.412,-0.618 6.78,-1.481c1.118,-0.705 0.32,-2.98 1.431,-3.696c1.179,-0.761 4.346,-0.521 5.647,-0.87c0.799,-0.214 1.331,-1.24 2.157,-1.224c1.001,0.02 2.616,0.771 3.851,1.34c1.301,0.598 2.849,1.45 3.954,2.254c0.999,0.727 1.601,1.954 2.672,2.569c1.088,0.625 2.893,0.547 3.851,1.179c0.898,0.591 1.738,1.72 1.9,2.608c0.162,0.887 -1.117,1.978 -0.927,2.718c0.189,0.739 1.243,1.619 2.065,1.716c0.822,0.098 1.844,-1.239 2.866,-1.133c1.061,0.111 2.394,1.155 3.496,1.797c1.076,0.626 2.114,1.318 3.118,2.054c1.436,1.053 4.131,3.072 5.499,4.263c0.994,0.866 1.7,2.033 2.708,2.883c1.067,0.9 2.508,1.644 3.696,2.518c1.177,0.865 2.406,1.842 3.433,2.724c0.948,0.814 2.249,1.447 2.73,2.569c0.481,1.121 -0.106,2.797 0.155,4.16c0.292,1.523 1.383,3.248 1.596,4.978c0.241,1.949 -0.23,4.974 -0.154,6.716c0.055,1.261 0.45,2.485 0.612,3.736c0.231,1.779 0.57,4.622 0.773,6.941c0.205,2.349 0.432,5.092 0.457,7.148c0.021,1.733 -0.155,3.7 -0.309,5.19c-0.131,1.26 -0.69,2.484 -0.618,3.748c0.094,1.665 1.01,4.211 1.181,6.24c0.167,1.973 0.118,4.326 -0.154,5.938c-0.224,1.321 -1.278,2.412 -1.481,3.736c-0.221,1.437 -0.299,3.816 0.154,4.887c0.388,0.917 1.567,1.538 2.563,1.539c1.498,0.001 4.485,-1.02 6.421,-1.533c1.746,-0.463 3.643,-0.621 5.196,-1.545c1.713,-1.02 3.719,-2.746 5.081,-4.572c1.584,-2.124 3.497,-5.929 4.424,-8.172c0.687,-1.665 0.699,-3.536 1.134,-5.285c0.495,-1.988 1.567,-4.363 1.835,-6.646c0.274,-2.326 -0.045,-4.876 -0.193,-7.308c-0.153,-2.503 -0.822,-5.834 -0.721,-7.709c0.067,-1.259 1.46,-2.409 1.326,-3.541c-0.134,-1.133 -2.127,-2.389 -2.132,-3.253c-0.005,-0.865 1.164,-1.761 2.1,-1.933c0.95,-0.175 2.538,0.735 3.599,0.882c0.914,0.127 1.928,-0.379 2.769,0c0.904,0.407 1.561,1.941 2.654,2.441c1.094,0.502 2.966,0.011 3.909,0.567c0.939,0.554 1.511,1.704 1.745,2.769c0.28,1.277 -0.109,3.507 -0.064,4.893c0.038,1.147 0.182,2.289 0.335,3.426c0.175,1.293 0.839,2.895 0.709,4.328c-0.129,1.432 -0.931,2.868 -1.487,4.269c-0.617,1.555 -1.505,3.498 -2.215,5.06c-0.659,1.45 -1.827,2.894 -2.048,4.315c-0.219,1.407 0.644,2.789 0.721,4.211c0.077,1.424 -0.077,3.048 -0.258,4.333c-0.161,1.149 -0.4,2.302 -0.824,3.381c-0.453,1.153 -1.509,2.261 -1.893,3.536c-0.384,1.275 -0.322,2.739 -0.412,4.115c-0.094,1.414 0.166,3.208 -0.149,4.372c-0.273,1.01 -1.065,1.813 -1.739,2.615c-1.199,1.428 -4.756,4.267 -5.46,5.956c-0.559,1.341 1.64,2.785 1.236,4.18c-0.472,1.623 -3.08,3.907 -4.064,5.563c-0.808,1.359 -1.755,3.088 -1.842,4.372c-0.08,1.193 0.86,2.405 1.321,3.335c0.395,0.798 1.177,1.399 1.442,2.248c0.266,0.854 -0.212,2.042 0.155,2.873c0.367,0.831 2.121,1.134 2.047,2.112c-0.093,1.243 -2.619,3.754 -2.607,5.347c0.011,1.593 1.718,3.048 2.678,4.212c0.88,1.065 2.142,1.94 3.084,2.769c0.848,0.747 1.771,1.41 2.57,2.209c0.875,0.874 1.791,2.098 2.678,3.039c0.85,0.901 1.688,1.826 2.648,2.608c1.287,1.049 3.71,2.101 5.075,3.684c1.384,1.606 2.348,4.36 3.232,5.95c0.672,1.208 1.311,2.438 2.071,3.592c0.917,1.392 2.466,3.297 3.433,4.76c0.857,1.297 1.536,2.705 2.369,4.018c0.908,1.431 2.189,3.27 3.078,4.572c0.743,1.087 1.884,2.025 2.261,3.239c0.376,1.214 -0.238,3.038 0,4.044c0.187,0.794 1.216,1.201 1.423,1.99c0.238,0.904 0.526,2.416 0,3.433c-0.831,1.607 -3.612,4.565 -4.99,6.214c-1.054,1.26 -2.194,2.445 -3.277,3.68c-1.231,1.403 -2.381,3.563 -4.109,4.739c-1.864,1.27 -5.998,1.339 -7.077,2.879c-1.078,1.54 -0.269,4.551 0.606,6.362c0.874,1.811 3.037,3.063 4.643,4.502c1.871,1.675 4.867,3.312 6.582,5.551c1.715,2.238 3.459,6.002 3.708,7.88c0.178,1.337 -1.318,2.379 -2.215,3.387c-1.011,1.138 -2.513,2.356 -3.85,3.439c-1.435,1.162 -3.231,2.492 -4.76,3.535c-1.427,0.975 -3.01,1.878 -4.411,2.725c-1.325,0.8 -2.56,1.789 -3.999,2.356c-1.669,0.658 -4.84,1.052 -6.015,1.591c-0.587,0.27 -0.599,1.16 -1.03,1.642c-0.566,0.633 -1.631,1.448 -2.363,2.157c-0.699,0.678 -1.073,1.92 -2.029,2.1c-1.23,0.231 -3.996,-0.185 -5.351,-0.715c-1.154,-0.451 -1.831,-2.037 -2.782,-2.466c-0.889,-0.402 -2.213,-0.51 -2.924,-0.11c-0.71,0.401 -1.156,1.581 -1.339,2.512c-0.223,1.139 0.251,2.946 0,4.321c-0.25,1.375 -1.328,2.626 -1.503,3.928c-0.174,1.291 0.111,2.798 0.451,3.883c0.307,0.977 1.317,1.641 1.591,2.627c0.291,1.049 0.634,2.628 0.154,3.664c-0.479,1.036 -1.918,1.841 -3.032,2.551c-1.139,0.725 -2.767,1.263 -3.8,1.802c-0.825,0.432 -1.997,0.984 -2.396,1.437c-0.282,0.32 0,0.854 0,1.281c0,0.598 0.472,1.699 0,2.306c-0.601,0.771 -2.392,1.568 -3.606,2.324c-1.381,0.86 -3.241,2.043 -4.681,2.833c-1.285,0.705 -2.65,1.563 -3.96,1.906c-1.26,0.33 -2.625,0.405 -3.903,0.154c-1.31,-0.256 -2.534,-1.525 -3.96,-1.693c-1.453,-0.172 -3.222,0.965 -4.759,0.664c-1.537,-0.302 -3.027,-1.64 -4.463,-2.473c-1.401,-0.813 -2.921,-1.674 -4.153,-2.524c-1.136,-0.783 -2.67,-1.32 -3.24,-2.576c-0.582,-1.285 -0.371,-3.694 -0.257,-5.132c0.095,-1.203 1.203,-2.416 0.94,-3.497c-0.263,-1.08 -1.816,-1.977 -2.518,-2.987c-0.667,-0.961 -1.89,-2.088 -1.694,-3.073c0.197,-0.984 2.64,-1.928 2.872,-2.833c0.232,-0.904 -0.874,-2.163 -1.481,-2.595c-0.587,-0.418 -1.678,-0.534 -2.163,0c-0.686,0.754 -1.043,3.158 -1.952,4.527c-0.916,1.38 -2.169,2.722 -3.548,3.754c-1.522,1.138 -3.797,2.29 -5.584,3.078c-1.645,0.725 -3.527,1.373 -5.138,1.648c-1.487,0.254 -3.046,-0.046 -4.527,0c-1.454,0.046 -3.011,-0.053 -4.355,0.279c-1.322,0.326 -2.519,1.05 -3.709,1.712c-1.422,0.791 -3.223,2.011 -4.824,3.033c-1.771,1.13 -4.102,2.62 -5.802,3.748c-1.482,0.983 -3.015,2.338 -4.398,3.02c-1.21,0.597 -2.556,1.165 -3.903,1.076c-1.438,-0.096 -3.742,-0.895 -4.726,-1.649c-0.822,-0.629 -0.882,-2.018 -1.179,-2.872c-0.256,-0.732 -0.156,-1.615 -0.606,-2.248c-0.537,-0.753 -1.973,-1.406 -2.613,-2.272c-0.629,-0.85 -1.025,-1.915 -1.23,-2.924c-0.205,-1.009 0.599,-2.874 0,-3.129c-0.599,-0.256 -2.465,1.279 -3.594,1.596c-1.025,0.289 -2.343,0.507 -3.181,0.309c-0.771,-0.181 -1.362,-0.869 -1.848,-1.494c-0.633,-0.813 -1.524,-2.156 -1.951,-3.386c-0.428,-1.233 -0.446,-2.781 -0.618,-4.012c-0.157,-1.123 -0.514,-2.351 -0.413,-3.375c0.098,-0.979 0.57,-1.896 1.025,-2.769c0.604,-1.161 1.794,-2.764 2.601,-4.199c0.949,-1.687 2.056,-4.129 3.091,-5.924c0.96,-1.664 2.359,-3.258 3.118,-4.845c0.704,-1.47 1.247,-3.429 1.436,-4.675c0.141,-0.928 -0.524,-2.155 -0.303,-2.8c0.211,-0.615 1.439,-0.448 1.63,-1.069c0.401,-1.301 0.287,-4.529 0.773,-6.736c0.498,-2.263 1.733,-4.9 2.215,-6.845c0.39,-1.576 0.904,-3.216 0.676,-4.824c-0.231,-1.626 -1.477,-3.486 -2.06,-4.933c-0.501,-1.241 -0.962,-2.532 -1.443,-3.747c-0.469,-1.186 -1.203,-2.29 -1.442,-3.542c-0.309,-1.62 -0.452,-4.113 -0.412,-6.176c0.04,-2.13 0.82,-4.702 0.654,-6.609c-0.147,-1.697 -1.273,-3.175 -1.648,-4.836c-0.402,-1.783 -0.622,-4.316 -0.767,-5.866c-0.106,-1.14 -0.021,-2.291 -0.103,-3.433c-0.094,-1.314 -0.129,-3 -0.463,-4.456c-0.395,-1.721 -1.359,-4.193 -1.906,-5.873c-0.457,-1.402 -0.896,-2.81 -1.378,-4.204c-0.528,-1.528 -1.012,-3.496 -1.79,-4.965c-0.75,-1.416 -1.713,-2.843 -2.879,-3.851c-1.165,-1.007 -2.747,-1.456 -4.114,-2.196c-1.406,-0.761 -3.127,-1.242 -4.321,-2.37c-1.217,-1.149 -2.012,-3.002 -2.982,-4.526c-1.003,-1.577 -1.581,-3.793 -3.039,-4.933c-1.458,-1.14 -4.266,-1.16 -5.711,-1.906c-1.162,-0.599 -2.226,-1.49 -2.963,-2.569c-0.751,-1.1 -0.792,-2.802 -1.543,-4.029c-0.813,-1.329 -2.282,-2.717 -3.335,-3.948c-0.987,-1.153 -1.976,-2.416 -2.982,-3.439c-0.953,-0.968 -1.955,-2.079 -3.053,-2.699c-1.069,-0.602 -2.318,-0.877 -3.536,-1.017c-1.472,-0.17 -3.799,0.16 -5.293,0c-1.258,-0.135 -2.651,-0.589 -3.671,-0.96c-0.864,-0.315 -1.948,-0.679 -2.448,-1.269c-0.5,-0.59 -0.077,-1.656 -0.554,-2.273c-0.502,-0.65 -1.778,-0.921 -2.46,-1.629c-0.756,-0.785 -2.509,-2.311 -2.074,-3.078Z" style="fill:#fff;stroke-width:0.75px;stroke:#422b15;"/><path id="Arvarokh" d="M742.839,593.191c1.884,-0.614 7.096,-0.033 8.804,0.511c0.987,0.314 1.287,1.783 1.443,2.752c0.156,0.969 -0.418,2.03 -0.506,3.061c-0.105,1.231 0.683,3.457 -0.123,4.328c-0.805,0.87 -3.208,1.411 -4.711,0.894c-1.503,-0.518 -3.071,-2.772 -4.306,-3.998c-1.082,-1.074 -3.003,-2.1 -3.103,-3.359c-0.101,-1.258 0.955,-3.686 2.502,-4.189ZM756.769,582.231c-0.762,0.226 -1.918,0.332 -2.114,1.102c-0.24,0.945 0.151,3.322 0.671,4.572c0.489,1.175 1.587,1.992 2.449,2.928c1.116,1.212 2.994,2.934 4.248,4.343c1.165,1.31 2.395,3.04 3.274,4.115c0.648,0.794 1.417,2.258 1.996,2.337c0.579,0.079 1.387,-1.075 1.48,-1.863c0.105,-0.885 -0.364,-2.367 -0.852,-3.444c-0.537,-1.189 -1.545,-2.557 -2.374,-3.689c-0.797,-1.089 -2.121,-1.919 -2.598,-3.104c-0.476,-1.184 0.124,-2.722 -0.26,-4.003c-0.397,-1.324 -1.132,-3.395 -2.119,-3.944c-0.987,-0.549 -2.815,0.358 -3.801,0.65ZM799,220.17c-0.42,0.484 -2.031,-0.304 -2.83,0.202c-1.178,0.745 -3.338,3.35 -4.239,4.27c-0.399,0.407 -1.011,0.7 -1.168,1.248c-0.195,0.679 0.458,2.002 0,2.825c-0.625,1.123 -3.044,2.476 -3.749,3.915c-0.697,1.42 0.254,3.322 -0.485,4.72c-0.78,1.474 -2.475,3.18 -4.194,4.123c-1.888,1.036 -4.947,0.973 -7.132,2.091c-2.184,1.117 -4.476,3.013 -5.977,4.617c-1.334,1.425 -2.311,3.372 -3.032,5.008c-0.669,1.517 -1.374,3.191 -1.293,4.805c0.08,1.613 1.387,3.191 1.778,4.876c0.411,1.772 -0.039,4.102 0.688,5.755c0.727,1.652 2.967,2.888 3.673,4.158c0.568,1.022 0.668,2.298 0.561,3.462c-0.122,1.33 -0.926,2.995 -1.293,4.517c-0.376,1.559 -0.552,3.641 -0.961,4.836c-0.298,0.874 -1.542,1.413 -1.491,2.334c0.061,1.082 1.27,2.755 1.855,4.154c0.675,1.617 1.544,4.135 2.199,5.549c0.477,1.031 1.151,1.958 1.728,2.936c0.643,1.088 1.986,2.601 2.128,3.593c0.127,0.883 -0.917,1.537 -1.274,2.355c-0.394,0.904 -1.287,2 -1.091,3.067c0.214,1.17 2.008,2.667 2.38,3.952c0.348,1.204 -0.718,2.639 -0.152,3.757c0.58,1.144 2.936,2.041 3.628,3.108c0.606,0.933 -0.187,2.441 0.526,3.295c0.767,0.919 3.008,1.307 4.077,2.223c1.017,0.871 1.043,2.917 2.335,3.269c1.411,0.385 4.496,-0.692 6.129,-0.96c1.227,-0.201 2.571,-0.734 3.674,-0.647c1.053,0.083 2.053,0.671 2.946,1.168c0.878,0.488 1.919,0.932 2.41,1.809c0.505,0.901 0.644,2.383 0.619,3.6c-0.031,1.495 -0.902,3.638 -0.804,5.366c0.099,1.729 1.378,3.332 1.395,5.007c0.018,1.675 -1.2,3.51 -1.288,5.043c-0.081,1.406 0.538,2.932 0.759,4.156c0.193,1.062 0.783,2.289 0.571,3.188c-0.212,0.9 -1.564,1.291 -1.844,2.208c-0.308,1.008 0.362,2.609 0,3.836c-0.384,1.3 -1.642,2.588 -2.304,3.966c-0.718,1.494 -0.82,3.721 -2.005,4.999c-1.185,1.278 -3.535,2.35 -5.104,2.668c-1.431,0.289 -2.977,-0.517 -4.311,-0.763c-1.233,-0.227 -2.62,-0.065 -3.694,-0.713c-1.087,-0.656 -1.92,-2.121 -2.83,-3.224c-0.941,-1.141 -2.019,-2.442 -2.819,-3.623c-0.746,-1.102 -1.651,-2.576 -1.981,-3.467c-0.217,-0.587 -0.236,-1.304 0,-1.88c0.236,-0.575 0.843,-1.16 1.415,-1.571c0.619,-0.445 1.824,-0.393 2.299,-1.097c0.478,-0.707 0.177,-2.227 0.566,-3.147c0.384,-0.91 1.789,-1.672 1.769,-2.376c-0.021,-0.704 -1.03,-1.656 -1.89,-1.849c-0.981,-0.221 -2.882,-0.23 -3.992,0.525c-1.176,0.8 -2.296,3.058 -3.063,4.275c-0.602,0.957 -1.08,1.991 -1.535,3.027c-0.559,1.271 -1.249,3.389 -1.814,4.598c-0.436,0.933 -1.091,1.75 -1.577,2.658c-0.513,0.96 -1.18,2 -1.501,3.103c-0.343,1.184 0.038,3.268 -0.56,4.001c-0.598,0.734 -2.014,0.499 -3.027,0.4c-1.237,-0.122 -3.253,-0.437 -4.396,-1.127c-1.111,-0.671 -1.681,-2.03 -2.461,-3.017c-0.755,-0.956 -1.433,-2.131 -2.218,-2.905c-0.721,-0.711 -1.585,-1.469 -2.491,-1.738c-0.907,-0.27 -2.676,-0.524 -2.947,0.121c-0.27,0.644 1.111,2.438 1.325,3.744c0.234,1.432 -0.278,3.295 0.08,4.846c0.359,1.55 1.163,3.119 2.072,4.457c0.909,1.339 3.08,2.422 3.38,3.573c0.3,1.151 -1.694,2.268 -1.58,3.334c0.114,1.066 1.819,1.902 2.264,3.062c0.444,1.161 0.856,2.675 0.404,3.902c-0.505,1.368 -2.468,2.809 -3.431,4.305c-0.944,1.466 -1.608,3.492 -2.35,4.675c-0.567,0.905 -1.172,1.892 -2.101,2.42c-1.007,0.572 -2.934,0.099 -3.937,1.01c-1.068,0.971 -2.109,3.274 -2.474,4.817c-0.342,1.443 -0.393,3.121 0.283,4.441c0.814,1.589 3.293,3.545 4.598,5.093c1.138,1.35 2.36,2.66 3.234,4.194c1.081,1.897 2.31,5.133 3.249,7.186c0.784,1.716 1.557,3.478 2.385,5.134c0.812,1.625 1.721,3.401 2.582,4.8c0.773,1.258 1.917,2.709 2.582,3.598c0.447,0.597 1.632,1.159 1.409,1.738c-0.222,0.579 -1.816,1.55 -2.743,1.738c-0.927,0.189 -2.007,-0.093 -2.82,-0.606c-1.047,-0.661 -2.4,-2.152 -3.461,-3.36c-1.189,-1.354 -2.585,-3.735 -3.674,-4.765c-0.773,-0.731 -2.117,-0.654 -2.86,-1.415c-0.832,-0.852 -1.231,-2.598 -2.133,-3.699c-0.911,-1.113 -2.398,-1.817 -3.335,-2.976c-0.986,-1.221 -1.593,-3.217 -2.582,-4.346c-0.908,-1.037 -2.025,-2.043 -3.35,-2.425c-1.588,-0.458 -4.117,-0.39 -6.175,-0.324c-2.058,0.067 -4.318,0.393 -6.174,0.723c-1.68,0.298 -3.302,0.861 -4.963,1.253c-1.74,0.411 -3.708,0.969 -5.482,1.213c-1.706,0.234 -3.996,-0.481 -5.159,0.247c-1.163,0.727 -1.388,2.821 -1.819,4.118c-0.393,1.185 -0.446,2.706 -0.766,3.667c-0.253,0.757 -0.404,1.834 -1.158,2.097c-1.112,0.388 -3.674,0.208 -5.513,0.233c-1.892,0.025 -4.095,0.004 -5.841,-0.081c-1.55,-0.076 -3.388,-0.305 -4.634,-0.43c-0.949,-0.096 -2.14,-0.866 -2.842,-0.322c-0.703,0.543 -0.429,2.722 -1.375,3.583c-0.951,0.865 -2.965,1.211 -4.33,1.606c-1.258,0.366 -2.97,0.204 -3.855,0.769c-0.842,0.536 -1.424,1.619 -1.456,2.617c-0.034,1.042 0.876,2.544 1.253,3.633c0.335,0.968 1.275,1.912 1.011,2.901c-0.302,1.126 -1.384,3.53 -2.82,3.861c-1.435,0.33 -4.351,-1.283 -5.795,-1.878c-1.027,-0.424 -1.963,-1.17 -2.87,-1.694c-0.851,-0.491 -1.763,-1.51 -2.567,-1.449c-0.805,0.06 -2.185,1.095 -2.259,1.814c-0.074,0.718 1.284,1.744 1.814,2.496c0.467,0.663 1.15,1.234 1.365,2.016c0.246,0.895 0.38,2.367 0.111,3.356c-0.269,0.989 -1.091,1.892 -1.728,2.577c-0.59,0.634 -1.466,1.583 -2.097,1.531c-0.632,-0.051 -1.076,-1.646 -1.693,-1.84c-0.616,-0.193 -1.799,0.121 -2.006,0.678c-0.207,0.557 0.696,1.749 0.763,2.663c0.067,0.913 -0.561,1.987 -0.359,2.82c0.202,0.832 1.269,1.331 1.572,2.173c0.306,0.852 0.421,1.989 0.265,2.94c-0.155,0.951 -0.776,1.91 -1.198,2.765c-0.399,0.811 -1.536,1.688 -1.329,2.365c0.208,0.676 1.648,1.248 2.573,1.693c1.006,0.484 2.366,0.748 3.466,1.213c1.077,0.455 2.116,1 3.134,1.576c1.02,0.578 2.293,1.138 2.986,1.89c0.649,0.704 0.868,1.714 1.172,2.622c0.35,1.047 1.138,2.492 0.93,3.659c-0.209,1.167 -1.967,2.131 -2.183,3.345c-0.216,1.215 0.24,2.81 0.889,3.942c0.649,1.131 2.265,2.013 3.008,2.847c0.575,0.647 0.722,1.685 1.445,2.158c0.723,0.473 1.956,0.355 2.89,0.682c1.074,0.376 2.705,0.833 3.552,1.572c0.816,0.711 1.411,1.785 1.532,2.86c0.147,1.311 -0.489,3.512 -0.647,5.007c-0.139,1.319 -0.836,2.977 -0.301,3.966c0.535,0.989 2.468,1.132 3.512,1.971c1.043,0.839 1.586,2.333 2.748,3.062c1.286,0.807 3.541,1.072 4.967,1.779c1.3,0.643 3.024,1.445 3.588,2.46c0.564,1.016 -0.226,2.421 -0.202,3.633c0.028,1.387 -0.069,3.633 0.369,4.684c0.356,0.856 1.526,1.054 2.258,1.622c0.807,0.627 1.57,1.664 2.582,2.138c1.05,0.491 2.672,0.088 3.714,0.808c1.151,0.794 2.317,2.687 3.189,3.956c0.791,1.153 1.297,2.667 2.041,3.662c0.669,0.894 2.41,1.205 2.425,2.309c0.015,1.104 -1.468,3.474 -2.334,4.315c-0.707,0.686 -1.937,0.402 -2.865,0.733c-0.928,0.33 -2.757,0.537 -2.703,1.248c0.053,0.71 1.928,2.105 3.021,3.016c1.175,0.981 2.664,2.744 4.028,2.866c1.363,0.121 3.004,-2.051 4.153,-2.138c1.057,-0.08 1.875,1.002 2.739,1.617c1.352,0.962 4.167,2.676 5.372,4.156c1.068,1.31 1.283,3.13 1.86,4.719c0.586,1.614 1.071,3.735 1.657,4.967c0.437,0.92 0.922,2.026 1.859,2.425c0.982,0.417 2.839,-0.453 4.033,0.081c1.194,0.533 2.171,2.533 3.13,3.121c0.754,0.462 2.018,-0.241 2.623,0.404c0.657,0.702 0.769,2.586 1.319,3.805c0.55,1.218 1.341,2.493 1.981,3.506c0.564,0.896 0.879,2.167 1.854,2.578c1.116,0.47 3.503,0.364 4.841,0.242c1.106,-0.1 2.569,-0.175 3.188,-0.97c0.619,-0.794 0.573,-2.518 0.526,-3.794c-0.047,-1.282 -1.002,-2.717 -0.809,-3.897c0.193,-1.179 1.147,-2.797 1.966,-3.179c0.819,-0.381 1.925,0.994 2.946,0.89c1.081,-0.11 2.386,-1.097 3.54,-1.551c1.111,-0.437 2.561,-1.272 3.385,-1.172c0.782,0.095 1.3,1.031 1.562,1.773c0.374,1.062 -0.158,3.854 0.682,4.594c0.841,0.739 3.009,-0.185 4.361,-0.157c1.254,0.026 2.762,0.04 3.749,0.323c0.826,0.237 1.916,0.844 2.178,1.375c0.262,0.53 -0.317,1.242 -0.606,1.809c-0.33,0.644 -0.869,1.402 -1.369,2.056c-0.612,0.8 -1.629,1.958 -2.3,2.744c-0.567,0.664 -1.635,1.102 -1.728,1.971c-0.094,0.886 0.51,2.666 1.162,3.345c0.652,0.679 1.888,0.935 2.749,0.728c0.862,-0.207 1.474,-1.54 2.421,-1.971c1.267,-0.577 3.535,-0.775 5.185,-1.491c1.657,-0.72 3.395,-2.5 4.76,-2.83c1.143,-0.276 2.612,0.473 3.426,0.849c0.613,0.284 0.801,1.241 1.455,1.41c0.76,0.196 2.128,0.114 3.107,-0.233c0.981,-0.348 1.949,-1.157 2.775,-1.854c0.812,-0.686 1.323,-2.1 2.178,-2.328c0.855,-0.227 2.183,0.296 2.951,0.961c0.768,0.664 1.105,2.017 1.657,3.027c0.586,1.071 1.062,2.692 1.859,3.4c0.76,0.673 2.103,1.044 2.927,0.844c0.823,-0.201 1.616,-1.176 2.015,-2.047c0.504,-1.099 0.65,-3.22 1.006,-4.548c0.311,-1.16 0.378,-2.535 1.132,-3.421c0.754,-0.886 2.325,-1.394 3.39,-1.895c0.966,-0.454 2.018,-1.283 3.002,-1.111c0.983,0.172 2.019,1.763 2.9,2.142c0.733,0.316 1.729,0.583 2.39,0.136c0.862,-0.583 2.179,-2.283 2.784,-3.633c0.606,-1.35 0.992,-2.958 0.849,-4.467c-0.188,-1.972 -1.597,-5.633 -1.976,-7.368c-0.217,-0.995 -0.958,-2.266 -0.297,-3.042c0.695,-0.817 3.551,-0.56 4.472,-1.86c0.92,-1.299 0.646,-4.563 1.051,-5.937c0.252,-0.858 1.351,-1.41 1.374,-2.304c0.026,-1.024 -0.571,-2.666 -1.218,-3.845c-0.7,-1.277 -2.118,-2.665 -2.986,-3.82c-0.764,-1.017 -2.012,-1.851 -2.218,-3.107c-0.221,-1.345 0.387,-3.595 0.894,-4.96c0.45,-1.213 1.365,-2.32 2.147,-3.234c0.735,-0.859 1.5,-1.827 2.542,-2.249c1.041,-0.421 2.481,-0.102 3.709,-0.278c1.264,-0.181 2.612,-0.427 3.875,-0.808c1.311,-0.396 2.737,-0.882 3.992,-1.567c1.325,-0.723 2.849,-1.604 3.957,-2.774c1.232,-1.302 2.387,-3.296 3.435,-5.038c1.129,-1.876 2.15,-4.338 3.339,-6.219c1.127,-1.784 3.033,-3.73 3.795,-5.069c0.504,-0.888 0.115,-2.195 0.772,-2.965c0.657,-0.769 2.58,-0.94 3.169,-1.652c0.562,-0.68 -0.055,-1.876 0.364,-2.622c0.419,-0.747 1.707,-1.019 2.152,-1.855c0.507,-0.952 0.108,-2.796 0.889,-3.861c0.793,-1.081 2.662,-2.243 3.871,-2.627c1.079,-0.343 2.289,0.022 3.381,0.323c1.29,0.356 2.81,1.766 4.364,1.813c1.553,0.048 3.649,-0.574 4.957,-1.525c1.308,-0.951 1.687,-3.106 2.891,-4.18c1.204,-1.074 2.816,-1.666 4.332,-2.265c1.554,-0.613 3.52,-1.571 4.993,-1.415c1.473,0.157 2.605,2.119 3.843,2.356c1.213,0.233 2.353,-0.953 3.588,-0.93c1.364,0.026 3.202,0.623 4.598,1.087c1.311,0.436 2.471,1.69 3.78,1.698c1.309,0.007 2.898,-0.976 4.073,-1.653c1.106,-0.637 2.755,-1.491 2.976,-2.41c0.222,-0.92 -0.999,-2.131 -1.647,-3.108c-0.663,-0.997 -1.879,-1.933 -2.328,-2.877c-0.402,-0.845 0.158,-2.007 -0.364,-2.784c-0.636,-0.948 -3.162,-1.673 -3.456,-2.905c-0.295,-1.232 1.23,-3.057 1.688,-4.487c0.429,-1.342 0.838,-2.701 1.057,-4.093c0.25,-1.59 -0.068,-4.022 0.444,-5.447c0.458,-1.275 1.544,-2.33 2.627,-3.103c1.083,-0.772 2.575,-1.034 3.871,-1.531c1.297,-0.497 2.567,-1.139 3.911,-1.45c1.345,-0.312 2.954,0.18 4.157,-0.419c1.203,-0.6 1.838,-2.569 3.062,-3.179c1.224,-0.61 3.378,0.394 4.28,-0.48c0.902,-0.873 0.453,-3.277 1.132,-4.76c0.707,-1.546 2.177,-3.346 3.112,-4.517c0.736,-0.921 1.437,-1.988 2.496,-2.506c1.102,-0.539 2.909,-0.543 4.113,-0.728c1.033,-0.158 2.102,-0.65 3.112,-0.381c1.681,0.448 4.875,2.152 6.978,3.067c1.876,0.817 3.84,2.142 5.639,2.425c1.714,0.27 3.636,-0.568 5.155,-0.727c1.314,-0.138 2.97,0.285 3.958,-0.228c0.987,-0.513 1.028,-2.177 1.965,-2.85c1.046,-0.751 3.145,-0.649 4.311,-1.652c1.376,-1.184 2.663,-4.046 3.946,-5.452c1.078,-1.182 2.773,-1.856 3.755,-2.987c0.952,-1.096 1.796,-2.383 2.137,-3.794c0.375,-1.552 -0.742,-4.043 0.112,-5.513c0.854,-1.471 3.691,-2.466 5.012,-3.31c0.954,-0.61 1.925,-1.197 2.911,-1.755c1.125,-0.636 3.635,-0.624 3.835,-2.061c0.792,-5.688 1.319,-26.396 0.914,-32.064c-0.092,-1.286 -2.295,-1.218 -3.342,-1.946c-1.041,-0.725 -2.069,-1.672 -2.937,-2.423c-0.777,-0.673 -1.547,-1.437 -2.269,-2.088c-0.682,-0.613 -1.706,-0.999 -2.069,-1.815c-0.362,-0.816 0.143,-2.13 -0.105,-3.078c-0.247,-0.949 -1.241,-1.638 -1.378,-2.613c-0.217,-1.538 0.736,-4.799 0.077,-6.616c-0.66,-1.817 -2.554,-3.004 -4.034,-4.286c-1.48,-1.283 -3.57,-2.478 -4.846,-3.408c-0.957,-0.698 -2.192,-1.164 -2.81,-2.174c-0.686,-1.12 -0.507,-3.187 -1.304,-4.548c-1.002,-1.711 -3.553,-4.337 -4.707,-5.72c-0.727,-0.871 -1.193,-2.096 -2.219,-2.58c-1.353,-0.638 -4.61,-0.524 -5.9,-1.253c-1.051,-0.594 -1.345,-2.163 -1.838,-3.12c-0.435,-0.846 -0.898,-1.8 -1.118,-2.624c-0.201,-0.751 0.282,-1.717 -0.205,-2.324c-0.675,-0.843 -2.731,-1.96 -3.848,-2.733c-0.94,-0.65 -2.161,-1.176 -2.853,-1.905c-0.64,-0.673 -0.635,-1.816 -1.301,-2.464c-0.863,-0.84 -2.692,-1.757 -3.877,-2.573c-1.093,-0.753 -2.56,-1.179 -3.232,-2.324c-0.705,-1.2 -0.996,-3.22 -0.997,-4.88c-0.002,-1.739 0.597,-3.722 0.988,-5.551c0.389,-1.823 0.939,-4.074 1.357,-5.424c0.287,-0.929 1.366,-1.731 1.15,-2.679c-0.3,-1.314 -2.202,-3.974 -2.949,-5.207c-0.463,-0.763 -1.643,-1.307 -1.534,-2.193c0.124,-1.013 1.741,-2.483 2.282,-3.884c0.657,-1.699 1.672,-4.329 1.658,-6.312c-0.013,-1.951 -1.126,-4.265 -1.738,-5.587c-0.426,-0.921 -1.738,-1.354 -1.936,-2.349c-0.322,-1.626 0.168,-5.201 0,-7.406c-0.15,-1.964 -1.19,-3.862 -1.009,-5.824c0.18,-1.967 1.618,-4.369 2.093,-5.974c0.354,-1.192 0.661,-2.414 0.757,-3.654c0.101,-1.29 0.242,-3.108 -0.153,-4.087c-0.355,-0.88 -1.357,-1.382 -2.215,-1.787c-0.97,-0.458 -2.479,-0.435 -3.606,-0.96c-1.222,-0.569 -3.099,-1.352 -3.724,-2.455c-0.624,-1.103 -0.3,-2.804 -0.022,-4.165c0.303,-1.49 1.516,-3.161 1.845,-4.775c0.326,-1.603 0.096,-3.27 0.128,-4.906c0.036,-1.939 0.137,-5.003 0.093,-6.729c-0.031,-1.214 0.402,-2.806 -0.358,-3.627c-0.76,-0.822 -2.917,-1.097 -4.204,-1.301c-1.159,-0.184 -2.346,0.119 -3.519,0.077c-1.292,-0.047 -3.326,-0.133 -4.235,-0.358c-0.509,-0.127 -0.976,-0.53 -1.221,-0.994c-0.541,-1.023 -1.806,-3.397 -2.023,-5.142c-0.218,-1.745 0.624,-3.951 0.718,-5.328c0.067,-0.977 0.443,-2.236 -0.153,-2.934c-0.597,-0.698 -2.211,-1.336 -3.424,-1.253c-1.238,0.086 -2.69,1.419 -4.004,1.765c-1.256,0.329 -2.586,0.264 -3.884,0.306c-1.329,0.044 -2.823,-0.204 -4.095,-0.044c-1.216,0.152 -2.334,1.011 -3.537,1.004c-1.202,-0.006 -2.429,-1.297 -3.679,-1.045c-1.289,0.261 -2.905,1.986 -4.059,2.608c-0.903,0.488 -1.846,0.998 -2.864,1.128c-1.912,0.245 -6.191,0.303 -8.609,0.342c-1.967,0.032 -4.334,0.282 -5.9,-0.105c-1.339,-0.331 -2.614,-1.297 -3.494,-2.219c-0.865,-0.907 -1.393,-2.333 -1.783,-3.311c-0.324,-0.81 0.285,-2.337 -0.56,-2.557c-1.342,-0.35 -5.831,-0.012 -7.497,0.455c-1.099,0.308 -1.543,1.716 -2.496,2.343c-1.047,0.688 -2.496,1.247 -3.781,1.787c-2.086,0.876 -6.381,2.685 -8.735,3.473c-1.75,0.585 -3.551,1.37 -5.392,1.253c-2.469,-0.157 -7.322,-1.478 -9.419,-2.196c-1.201,-0.411 -2.602,-0.977 -3.168,-2.113c-0.63,-1.267 -0.432,-3.655 -0.614,-5.485c-0.191,-1.929 0.039,-5.342 -0.536,-6.088c-0.576,-0.745 -1.893,1.895 -2.915,1.614c-1.022,-0.28 -2.206,-2.293 -3.219,-3.298c-0.936,-0.929 -1.817,-1.927 -2.86,-2.733c-1.313,-1.014 -3.542,-2.841 -5.018,-3.354c-1.212,-0.421 -2.688,-0.288 -3.839,0.279c-1.557,0.766 -4.395,2.96 -5.501,4.317c-0.841,1.031 -0.9,2.517 -1.14,3.826c-0.241,1.314 -0.034,2.73 -0.307,4.059c-0.32,1.553 -1.422,3.53 -1.611,5.261c-0.186,1.705 0.802,3.439 0.477,5.124c-0.377,1.948 -2.332,5.022 -2.736,6.567c-0.23,0.878 0.731,2.219 0.312,2.703ZM779.909,495.393c-0.44,1.496 -1.04,4.873 -1.663,7.237c-0.616,2.335 -1.327,5.164 -2.074,6.941c-0.571,1.361 -2.305,2.404 -2.404,3.719c-0.099,1.316 1.063,2.854 1.811,4.172c0.822,1.447 1.742,4.234 3.118,4.511c1.376,0.278 3.657,-1.677 5.139,-2.847c1.468,-1.159 2.966,-2.475 3.753,-4.172c0.8,-1.724 0.665,-4.122 1.045,-6.175c0.427,-2.302 1.806,-5.532 1.516,-7.638c-0.272,-1.97 -2.151,-3.75 -3.257,-4.999c-0.929,-1.047 -2.379,-2.076 -3.381,-2.491c-0.809,-0.335 -2.029,-0.29 -2.629,0c-0.599,0.29 -0.787,1.104 -0.974,1.742ZM896.018,499.498c-0.07,0.619 -0.065,1.828 0.239,2.662c0.303,0.835 0.808,1.972 1.581,2.344c0.773,0.371 2.058,-0.28 3.057,-0.115c0.998,0.165 2.149,0.706 2.931,1.107c0.65,0.333 1.056,1.437 1.765,1.297c0.71,-0.14 2.137,-1.441 2.494,-2.134c0.313,-0.61 0.002,-1.44 -0.354,-2.025c-0.412,-0.676 -1.199,-1.692 -2.115,-2.034c-1.082,-0.405 -3.29,-0.091 -4.377,-0.394c-0.827,-0.231 -1.383,-1.133 -2.144,-1.426c-0.761,-0.294 -1.911,-0.454 -2.423,-0.334c-0.402,0.094 -0.609,0.641 -0.654,1.052ZM796.263,493.393c-0.856,-0.302 -2.039,-1.954 -1.942,-3.196c0.128,-1.632 1.666,-4.893 2.709,-6.593c0.881,-1.437 2.368,-3.313 3.544,-3.606c1.176,-0.293 2.484,1.014 3.511,1.847c1.232,1 2.941,2.724 3.884,4.154c0.876,1.327 1.49,2.862 1.775,4.426c0.296,1.618 0.361,3.561 0,5.286c-0.394,1.888 -1.381,4.699 -2.368,6.043c-0.806,1.099 -2.811,2.543 -3.553,2.021c-0.742,-0.523 -0.753,-3.417 -0.897,-5.156c-0.15,-1.809 0.578,-4.602 0,-5.703c-0.555,-1.058 -2.356,-0.985 -3.466,-0.906c-1.111,0.08 -2.34,1.685 -3.197,1.383ZM714.248,473.447c-0.299,0.783 -0.089,2.361 0,3.537c0.104,1.354 -0.179,3.986 0.619,4.589c0.799,0.602 3.616,-0.063 4.172,-0.976c0.556,-0.913 -0.337,-3.118 -0.836,-4.503c-0.495,-1.372 -1.501,-3.365 -2.16,-3.806c-0.592,-0.396 -1.54,0.494 -1.795,1.159ZM646.323,430.42c0.031,0.832 1.305,2.338 2,3.384c0.667,1.005 1.413,2.113 2.17,2.895c0.69,0.713 1.992,1.18 2.373,1.797c0.335,0.541 0.156,1.352 -0.083,1.906c-0.239,0.555 -0.832,1.024 -1.352,1.42c-0.659,0.503 -1.744,1.165 -2.601,1.595c-0.812,0.407 -1.859,0.774 -2.541,0.985c-0.502,0.156 -1.364,-0.208 -1.551,0.283c-0.273,0.718 -0.206,2.858 -0.086,4.025c0.104,1.023 0.506,1.994 0.804,2.978c0.342,1.129 0.894,2.889 1.246,3.79c0.223,0.571 0.375,1.336 0.866,1.62c0.491,0.285 1.443,0.362 2.08,0.087c0.646,-0.279 1.166,-1.206 1.794,-1.761c0.671,-0.593 1.739,-1.059 2.231,-1.797c0.493,-0.739 0.361,-1.799 0.725,-2.634c0.41,-0.941 1.036,-2.105 1.736,-3.011c0.699,-0.907 1.883,-1.456 2.46,-2.428c0.577,-0.971 0.847,-2.23 1.004,-3.402c0.167,-1.248 0.202,-2.74 0,-4.087c-0.208,-1.385 -0.668,-3.228 -1.247,-4.221c-0.473,-0.814 -1.427,-1.24 -2.224,-1.739c-0.811,-0.508 -1.952,-0.664 -2.638,-1.305c-0.686,-0.64 -0.836,-2.02 -1.478,-2.54c-0.633,-0.512 -1.728,-0.671 -2.373,-0.579c-0.62,0.088 -1.018,0.731 -1.501,1.13c-0.552,0.457 -1.844,0.801 -1.814,1.609ZM640.659,442.476c-0.384,-0.122 -1.334,1.969 -1.213,2.982c0.12,1.012 1.55,2.969 1.935,3.091c0.384,0.121 0.467,-1.571 0.373,-2.363c-0.12,-1.012 -0.71,-3.589 -1.095,-3.71ZM643.428,435.957c-0.526,-0.255 -1.176,1.373 -1.014,2.148c0.198,0.953 1.68,3.311 2.206,3.565c0.526,0.255 1.102,-1.303 0.949,-2.036c-0.198,-0.953 -1.615,-3.422 -2.141,-3.677ZM779.22,400.702c-0.556,1.179 0.289,4.12 0,5.234c-0.189,0.728 -1.016,1.219 -1.733,1.446c-0.762,0.241 -2.089,0.311 -2.839,0c-0.751,-0.311 -0.925,-1.52 -1.664,-1.865c-0.739,-0.344 -2.216,-0.543 -2.769,-0.2c-0.553,0.343 -0.812,1.528 -0.549,2.257c0.31,0.861 2.057,1.799 2.412,2.908c0.356,1.109 -0.511,2.661 -0.278,3.746c0.225,1.052 1.451,1.967 1.672,2.761c0.181,0.653 -0.598,1.373 -0.349,2.003c0.369,0.934 1.648,2.882 2.561,3.597c0.787,0.617 2.058,0.187 2.918,0.698c1.052,0.625 2.228,2.335 3.396,3.056c1.087,0.671 2.831,1.706 3.615,1.271c0.784,-0.436 0.907,-2.658 1.089,-3.884c0.169,-1.146 0.196,-2.333 0,-3.475c-0.209,-1.216 -1.341,-2.485 -1.254,-3.823c0.103,-1.585 1.166,-4.163 1.872,-5.687c0.588,-1.268 2.309,-2.217 2.369,-3.459c0.061,-1.241 -1.268,-2.696 -2.004,-3.989c-0.738,-1.301 -1.575,-3.076 -2.43,-3.815c-0.698,-0.603 -1.794,-0.801 -2.699,-0.619c-1.006,0.204 -2.794,0.691 -3.336,1.839ZM897.663,400.976c-0.038,-1.793 -0.1,-4.769 0.43,-5.755c0.436,-0.809 2.401,-1.008 2.751,-0.159c0.389,0.943 -0.512,4.253 -0.417,5.821c0.075,1.238 0.514,2.441 0.988,3.587c0.554,1.339 1.987,2.81 2.334,4.449c0.362,1.711 0.219,4.778 -0.16,5.82c-0.246,0.676 -1.664,0.992 -2.114,0.431c-0.528,-0.658 -0.567,-2.961 -1.055,-4.382c-0.526,-1.532 -1.642,-3.172 -2.102,-4.808c-0.455,-1.619 -0.62,-3.322 -0.655,-5.004ZM860.184,388.315c-0.649,-0.185 -1.671,0.788 -2.175,1.513c-0.628,0.902 -1.326,2.831 -1.591,3.905c-0.203,0.819 -0.449,1.881 0,2.533c0.449,0.652 1.9,1.569 2.692,1.379c0.792,-0.191 1.645,-1.519 2.062,-2.521c0.465,-1.117 0.894,-3.048 0.729,-4.182c-0.15,-1.036 -1.068,-2.441 -1.717,-2.627ZM867.748,385.755c-0.57,1.125 -0.511,3.668 0,5.391c0.538,1.815 1.95,4.566 3.229,5.502c1.195,0.875 3.044,0.602 4.442,0.113c1.402,-0.491 3.089,-2.274 3.971,-3.057c0.525,-0.467 1.659,-1.029 1.319,-1.644c-0.583,-1.057 -3.229,-3.417 -4.819,-4.694c-1.449,-1.164 -3.363,-2.702 -4.72,-2.971c-1.204,-0.238 -2.867,0.265 -3.422,1.36ZM892.12,376.534c0.225,0.953 1.813,2.722 3.016,3.806c1.378,1.241 4.028,2.848 5.25,3.639c0.661,0.427 1.49,1.301 2.083,1.108c0.594,-0.194 1.111,-1.444 1.479,-2.268c0.476,-1.067 1.469,-3.113 1.379,-4.137c-0.082,-0.921 -1.124,-1.535 -1.922,-2.002c-1.13,-0.66 -3.25,-1.612 -4.854,-1.956c-1.554,-0.333 -3.694,-0.407 -4.766,-0.106c-0.815,0.229 -1.86,1.092 -1.665,1.916ZM761.444,370.498c-0.335,-0.172 -0.901,-1.206 -0.901,-1.856c0,-0.649 0.566,-1.91 0.901,-2.042c0.335,-0.131 0.922,0.742 1.107,1.255c0.184,0.513 0.184,1.384 0,1.824c-0.177,0.424 -0.772,0.992 -1.107,0.819ZM756.833,346.093c-0.401,0.515 -1.023,0.916 -1.208,1.542c-0.201,0.68 0.186,1.822 0,2.539c-0.175,0.673 -1.077,1.2 -1.118,1.763c-0.041,0.563 0.747,1.015 0.87,1.614c0.16,0.786 -0.264,2.222 0.093,3.099c0.356,0.877 1.373,1.46 2.046,2.162c0.658,0.688 1.389,1.43 1.987,2.05c0.537,0.556 0.877,1.575 1.604,1.673c0.727,0.099 1.966,-0.53 2.756,-1.083c0.791,-0.553 1.381,-1.454 1.984,-2.232c0.6,-0.774 1.083,-1.631 1.635,-2.439c0.614,-0.896 1.287,-2.02 2.046,-2.942c0.858,-1.042 2.412,-2.444 3.098,-3.308c0.444,-0.559 0.664,-1.263 1.021,-1.88c0.367,-0.633 0.51,-1.582 1.181,-1.922c0.714,-0.361 2.275,0.018 3.102,-0.244c0.725,-0.23 1.583,-0.618 1.855,-1.328c0.31,-0.805 0.279,-2.417 0,-3.502c-0.278,-1.085 -0.963,-2.107 -1.673,-3.009c-0.723,-0.92 -1.798,-1.871 -2.667,-2.512c-0.771,-0.568 -1.757,-0.789 -2.547,-1.331c-0.864,-0.594 -1.508,-2.279 -2.639,-2.233c-1.132,0.047 -3.061,1.829 -4.151,2.512c-0.809,0.507 -1.639,1.132 -2.387,1.584c-0.682,0.412 -1.63,0.6 -2.105,1.129c-0.475,0.53 -0.528,1.396 -0.745,2.046c-0.205,0.612 -0.24,1.292 -0.559,1.852c-0.373,0.655 -1.126,1.377 -1.677,2.074c-0.58,0.733 -1.301,1.681 -1.802,2.326ZM746.54,358.565c-0.396,-0.043 -1.177,-0.685 -1.359,-1.18c-0.182,-0.495 -0.055,-1.492 0.268,-1.79c0.324,-0.299 1.141,-0.165 1.674,0c0.599,0.185 1.845,0.773 1.918,1.114c0.073,0.341 -1.063,0.622 -1.479,0.932c-0.369,0.273 -0.625,0.967 -1.022,0.924ZM751.495,355.428c-0.041,0.262 1.227,2.249 1.521,2.384c0.295,0.135 0.499,-1.175 0.245,-1.573c-0.254,-0.397 -1.726,-1.073 -1.766,-0.811ZM746.347,352.71c0.03,0.332 1.336,0.946 1.855,0.901c0.519,-0.045 1.289,-0.837 1.259,-1.169c-0.031,-0.332 -0.922,-0.868 -1.441,-0.824c-0.519,0.045 -1.704,0.76 -1.673,1.092ZM787.295,347.3c-0.198,0.391 -0.782,1.365 -0.808,2.104c-0.026,0.738 0.367,2.315 0.652,2.325c0.285,0.01 0.967,-1.488 1.056,-2.267c0.089,-0.779 -0.37,-2.047 -0.52,-2.407c-0.058,-0.139 -0.312,0.11 -0.38,0.245ZM789.581,349.551c-0.022,0.55 2.362,2.094 3.032,2.017c0.669,-0.077 0.963,-1.932 0.986,-2.481c0.016,-0.393 -0.461,-0.86 -0.852,-0.815c-0.669,0.077 -3.143,0.73 -3.166,1.279ZM750.582,346.458c-0.419,-0.148 -0.982,-1.411 -1.176,-2.228c-0.196,-0.825 -0.29,-2.077 0,-2.722c0.285,-0.634 1.161,-1.226 1.739,-1.149c0.579,0.076 1.505,1.072 1.732,1.607c0.214,0.505 -0.211,1.079 -0.369,1.604c-0.159,0.525 -0.276,1.09 -0.582,1.549c-0.321,0.481 -0.924,1.488 -1.344,1.339ZM794.523,344.168c-0.364,0.193 -0.563,1.755 -0.239,1.874c0.324,0.119 2.143,-0.848 2.183,-1.16c0.04,-0.313 -1.58,-0.908 -1.944,-0.714ZM873.726,275.855c-0.577,-0.092 0.162,3.135 0.373,4.613c0.205,1.434 0.316,4.162 0.893,4.254c0.576,0.092 2.778,-2.224 2.567,-3.702c-0.211,-1.478 -3.257,-5.073 -3.833,-5.165ZM759.896,252.837c-0.432,-0.063 -0.847,-1.759 -0.786,-2.614c0.06,-0.856 0.721,-2.281 1.147,-2.517c0.425,-0.235 1.163,0.622 1.404,1.105c0.241,0.482 0.28,1.243 0.04,1.79c-0.294,0.671 -1.373,2.299 -1.805,2.236ZM779.172,213.727c1.124,-0.262 2.578,1.964 3.993,1.925c1.415,-0.039 3.371,-1.423 4.497,-2.158c0.889,-0.58 1.242,-1.937 2.258,-2.248c1.139,-0.347 4.025,-0.464 4.576,0.161c0.551,0.625 -0.293,2.779 -1.27,3.59c-1.753,1.455 -7.521,3.441 -9.245,5.142c-1.229,1.212 -0.356,4.069 -1.1,5.061c-0.697,0.928 -2.452,0.172 -3.367,0.887c-1.341,1.046 -3.537,3.748 -4.677,5.393c-0.945,1.363 -1.378,3.651 -2.168,4.477c-0.602,0.631 -2.263,-0.281 -2.571,0.484c-0.307,0.764 1.087,3.338 0.726,4.103c-0.361,0.765 -2.177,-0.181 -2.894,0.484c-0.994,0.924 -2.066,4.534 -3.074,5.061c-1.008,0.528 -2.418,-0.86 -2.973,-1.896c-0.657,-1.225 -0.715,-3.625 -0.969,-5.455c-0.267,-1.925 -0.114,-4.443 -0.635,-6.1c-0.457,-1.455 -2.18,-2.695 -2.49,-3.841c-0.269,-0.998 -0.303,-2.601 0.635,-3.035c1.126,-0.521 4.174,0.071 6.119,-0.091c1.869,-0.155 3.922,-0.289 5.555,-0.877c1.57,-0.565 3.192,-1.389 4.245,-2.651c1.054,-1.262 1.272,-3.517 2.077,-4.92c0.738,-1.286 1.628,-3.234 2.752,-3.496ZM784.684,211.634c-0.194,0.03 -1.236,-1.293 -1.25,-1.588c-0.014,-0.295 0.956,-0.446 1.165,-0.182c0.208,0.265 0.28,1.74 0.085,1.77ZM779.738,209.1c-0.188,0.258 -1.551,-0.038 -1.933,-0.322c-0.383,-0.285 -0.551,-1.129 -0.363,-1.387c0.188,-0.258 1.107,-0.446 1.49,-0.161c0.382,0.284 0.994,1.612 0.806,1.87ZM781.415,207.781c-0.151,-0.157 0.084,-1.617 0.282,-1.752c0.198,-0.134 0.952,0.651 0.905,0.943c-0.047,0.292 -1.036,0.967 -1.187,0.809ZM795.415,205.294c-0.911,-0.223 -2.103,-3.015 -2.078,-4.416c0.026,-1.402 1.993,-2.487 2.229,-3.993c0.401,-2.542 -0.164,-9.076 0.172,-11.261c0.132,-0.859 1.014,-2.102 1.844,-1.845c0.857,0.266 2.748,2.372 3.297,3.439c0.453,0.878 0.169,1.99 0,2.963c-0.198,1.15 -0.844,2.649 -1.19,3.933c-0.336,1.247 -0.747,2.487 -0.887,3.771c-0.148,1.35 0.564,3.099 0,4.334c-0.565,1.235 -2.476,3.299 -3.387,3.075ZM776.509,204.449c-0.429,0.063 -1.463,-1.12 -1.591,-1.755c-0.128,-0.635 0.395,-1.991 0.825,-2.054c0.429,-0.064 1.624,1.039 1.752,1.674c0.128,0.634 -0.557,2.071 -0.986,2.135ZM783.301,203.398c-0.373,0.133 0.611,0.975 1.109,1.006c0.558,0.034 2.424,-0.634 2.239,-0.802c-0.185,-0.168 -2.975,-0.338 -3.348,-0.204ZM779.328,202.742c-0.041,0.433 0.756,1.232 1.149,1.205c0.393,-0.027 1.167,-0.936 1.208,-1.369c0.04,-0.433 -0.573,-1.255 -0.966,-1.228c-0.393,0.028 -1.351,0.959 -1.391,1.392ZM897.722,203.222c-0.854,-0.464 1.956,-2.302 1.979,-3.437c0.023,-1.135 -1.154,-2.373 -1.843,-3.373c-0.659,-0.957 -2.117,-1.478 -2.291,-2.627c-0.204,-1.352 0.36,-3.759 1.066,-5.48c0.742,-1.811 2.727,-3.369 3.389,-5.383c0.819,-2.497 0.85,-7.987 1.53,-9.597c0.33,-0.783 1.78,-0.429 2.548,-0.064c0.893,0.424 1.596,2.211 2.811,2.612c1.514,0.499 4.706,-0.544 6.273,0.384c1.567,0.928 2.027,3.494 3.132,5.183c1.268,1.94 3.358,4.474 4.478,6.457c0.965,1.707 2.551,4.329 2.243,5.439c-0.309,1.111 -2.996,0.318 -4.093,1.225c-1.291,1.068 -2.587,4.019 -3.653,5.184c-0.738,0.806 -1.685,1.517 -2.74,1.802c-1.744,0.471 -5.252,0.746 -7.723,1.025c-2.363,0.267 -6.251,1.115 -7.106,0.65ZM884.267,194.387c0.375,-1.239 -1.322,-6.377 -2.097,-9.306c-0.737,-2.788 -1.098,-5.886 -2.552,-8.267c-1.453,-2.381 -4.612,-4.862 -6.17,-6.019c-0.885,-0.657 -2.3,-0.252 -3.176,-0.921c-1.13,-0.863 -2.92,-2.797 -3.6,-4.254c-0.637,-1.363 0.128,-3.113 -0.484,-4.487c-0.694,-1.56 -2.317,-3.844 -3.68,-4.87c-1.246,-0.939 -3.196,-0.587 -4.496,-1.291c-1.296,-0.702 -2.626,-1.627 -3.307,-2.934c-0.776,-1.493 -0.696,-4.133 -1.352,-6.02c-0.644,-1.857 -1.788,-3.98 -2.58,-5.303c-0.583,-0.975 -1.081,-2.299 -2.168,-2.631c-2.224,-0.681 -7.878,0.343 -11.18,-1.452c-3.743,-2.036 -7.833,-8.916 -11.281,-10.763c-2.765,-1.482 -7.653,-0.726 -9.405,-0.323c-0.961,0.221 -0.64,1.876 -1.11,2.742c-0.988,1.82 -4.095,6.238 -4.819,8.177c-0.407,1.09 0.899,2.375 0.474,3.458c-0.51,1.302 -2.574,2.771 -3.538,4.354c-0.964,1.583 -1.469,3.561 -2.248,5.142c-0.734,1.488 -1.546,3.45 -2.429,4.345c-0.715,0.724 -2.181,0.284 -2.874,1.029c-1.134,1.218 -2.989,3.997 -3.932,6.28c-1.003,2.428 -1.794,6.198 -2.088,8.287c-0.197,1.405 -0.317,2.978 0.323,4.245c0.859,1.698 3.514,4.418 4.829,5.947c0.967,1.125 1.661,2.746 3.064,3.227c1.568,0.538 4.452,0.2 6.342,0c1.705,-0.181 3.336,-1.187 5,-1.201c1.663,-0.013 3.584,0.148 4.98,1.12c1.689,1.176 3.73,4.56 5.152,5.938c0.982,0.952 2.324,2.377 3.377,2.329c1.054,-0.049 2.069,-3.055 2.945,-2.622c0.875,0.433 0.867,4.231 2.309,5.222c1.442,0.992 4.589,-0.292 6.342,0.726c1.753,1.018 2.592,4.421 4.173,5.384c1.517,0.923 3.567,0.719 5.313,0.393c1.808,-0.337 3.643,-1.73 5.535,-2.419c1.916,-0.698 3.895,-1.944 5.958,-1.765c2.322,0.202 5.371,3.097 7.974,2.974c2.602,-0.122 5.62,-2.652 7.642,-3.709c1.536,-0.804 3.014,-2.505 4.487,-2.632c1.472,-0.127 3.972,3.109 4.347,1.87ZM778.445,198.963c-0.248,0.087 -1.153,-0.821 -1.087,-1.089c0.067,-0.268 1.307,-0.701 1.488,-0.519c0.181,0.181 -0.153,1.522 -0.401,1.608ZM790.396,177.506c0.388,0.546 0.911,3.549 0.645,5.313c-0.307,2.041 -2.075,4.759 -2.491,6.935c-0.382,2.004 0.536,4.844 0,6.119c-0.46,1.095 -2.028,1.496 -3.215,1.533c-1.314,0.04 -3.728,-0.351 -4.668,-1.291c-0.939,-0.939 -1.286,-3.058 -0.967,-4.345c0.319,-1.287 1.975,-2.209 2.884,-3.377c1.072,-1.378 2.527,-3.414 3.548,-4.89c0.897,-1.295 1.869,-2.962 2.58,-3.962c0.51,-0.717 1.296,-2.582 1.684,-2.035ZM899.535,163.792c0.361,0.184 1.873,-0.046 2.066,-0.302c0.194,-0.256 -0.545,-1.05 -0.906,-1.234c-0.361,-0.184 -1.067,-0.128 -1.261,0.128c-0.193,0.256 -0.26,1.224 0.101,1.408Z" style="fill:#fff;stroke-width:0.75px;stroke:#422b15;"/><path d="M204.744,422.455c0.517,-0.19 1.457,0.717 1.958,1.096c0.42,0.317 0.685,0.826 1.048,1.178c0.351,0.341 1.036,0.458 1.129,0.938c0.184,0.952 0.181,3.803 -0.024,4.779c-0.111,0.527 -1.081,0.553 -1.206,1.078c-0.201,0.846 -0.165,3.138 0,3.996c0.096,0.499 0.944,0.651 0.991,1.156c0.144,1.541 -0.297,6.435 -0.131,8.09c0.072,0.716 0.587,1.367 1.129,1.841c0.546,0.478 2.012,0.52 2.152,1.027c0.141,0.508 -0.972,1.354 -1.31,2.02c-0.317,0.624 -0.759,1.481 -0.719,1.975c0.038,0.458 0.912,0.53 0.964,0.987c0.149,1.308 -0.518,5.312 -0.071,6.857c0.338,1.171 1.961,1.857 2.751,2.411c0.596,0.419 1.479,0.449 1.985,0.914c0.505,0.465 0.842,1.191 1.048,1.877c0.25,0.836 0.087,2.332 0.456,3.14c0.34,0.744 1.137,1.423 1.76,1.708c0.6,0.274 1.363,0.187 1.978,0c0.615,-0.188 1.188,-0.83 1.71,-1.125c0.454,-0.257 0.912,-0.547 1.424,-0.645c0.675,-0.13 2.008,-0.215 2.63,-0.135c0.417,0.054 0.687,0.541 1.101,0.615c0.643,0.116 2.059,0.155 2.754,0.081c0.503,-0.054 1.026,-0.214 1.421,-0.528c0.42,-0.334 0.718,-1.068 1.098,-1.474c0.348,-0.372 0.765,-0.674 1.183,-0.964c0.519,-0.362 1.368,-0.707 1.934,-1.206c0.566,-0.5 0.851,-1.328 1.462,-1.792c0.61,-0.463 1.475,-0.838 2.2,-0.988c0.703,-0.146 1.59,-0.221 2.151,0.085c0.561,0.306 0.885,1.213 1.215,1.75c0.289,0.472 0.305,1.191 0.762,1.474c0.457,0.284 1.392,0.006 1.98,0.227c0.589,0.221 0.957,0.881 1.552,1.098c0.655,0.24 1.803,0.524 2.378,0.341c0.57,-0.182 0.749,-0.936 1.073,-1.439c0.377,-0.584 0.776,-1.383 1.184,-2.062c0.467,-0.778 1.136,-1.875 1.619,-2.604c0.403,-0.608 0.998,-1.246 1.283,-1.772c0.229,-0.424 0.156,-0.982 0.425,-1.382c0.448,-0.669 1.678,-1.988 2.267,-2.629c0.397,-0.431 1.057,-0.722 1.269,-1.215c0.211,-0.494 0.078,-1.17 0,-1.747c-0.089,-0.653 -0.331,-1.59 -0.532,-2.172c-0.161,-0.468 -0.776,-0.839 -0.673,-1.322c0.128,-0.606 0.93,-1.658 1.445,-2.311c0.475,-0.601 1.37,-0.932 1.644,-1.605c0.274,-0.673 -0.041,-1.657 0,-2.434c0.04,-0.745 0.194,-1.481 0.246,-2.225c0.069,-0.985 0.085,-2.558 0.17,-3.686c0.078,-1.03 0.213,-2.078 0.34,-3.082c0.125,-0.983 0.095,-2.017 0.425,-2.941c0.331,-0.924 1.199,-1.659 1.559,-2.604c0.4,-1.05 0.73,-2.541 0.84,-3.697c0.103,-1.077 -0.047,-2.302 -0.178,-3.241c-0.114,-0.816 -0.143,-1.716 -0.609,-2.395c-0.595,-0.868 -2.127,-1.884 -2.964,-2.815c-0.771,-0.856 -1.214,-2.12 -2.063,-2.771c-0.848,-0.65 -2.065,-0.651 -3.029,-1.133c-1.056,-0.529 -2.381,-1.304 -3.309,-2.038c-0.855,-0.676 -1.595,-1.742 -2.257,-2.366c-0.535,-0.503 -1.232,-0.828 -1.719,-1.378c-0.516,-0.582 -1.149,-1.375 -1.378,-2.115c-0.23,-0.74 0.011,-1.55 0,-2.325c-0.017,-1.083 0.157,-3.114 -0.1,-4.173c-0.205,-0.845 -1.137,-1.36 -1.442,-2.175c-0.352,-0.943 -0.245,-2.509 -0.671,-3.48c-0.402,-0.918 -1.214,-1.733 -1.882,-2.345c-0.614,-0.565 -1.341,-1.034 -2.122,-1.329c-1.023,-0.386 -2.89,-0.542 -4.014,-0.989c-0.996,-0.395 -2.346,-1.021 -2.732,-1.692c-0.387,-0.672 0.454,-1.617 0.412,-2.337c-0.04,-0.694 -0.289,-1.393 -0.664,-1.979c-0.406,-0.635 -1.227,-1.266 -1.771,-1.827c-0.497,-0.514 -1.454,-0.827 -1.492,-1.541c-0.039,-0.737 0.894,-2.202 1.259,-2.879c0.239,-0.443 0.818,-0.697 0.932,-1.187c0.155,-0.662 -0.254,-1.891 -0.003,-2.785c0.307,-1.091 0.989,-2.659 1.844,-3.764c0.863,-1.116 2.726,-1.753 3.334,-2.93c0.609,-1.178 0.34,-2.753 0.316,-4.135c-0.026,-1.395 -0.308,-3.152 -0.466,-4.234c-0.111,-0.763 -0.334,-1.505 -0.482,-2.261c-0.209,-1.072 -1.09,-3.421 -0.775,-4.169c0.315,-0.749 1.774,-0.379 2.667,-0.32c1.095,0.074 2.59,0.582 3.903,0.759c1.395,0.189 3.148,0.624 4.47,0.375c1.288,-0.242 2.387,-1.426 3.462,-1.864c0.951,-0.387 2.126,-0.454 2.986,-0.761c0.761,-0.271 2.122,-0.537 2.173,-1.076c0.051,-0.539 -1.101,-1.594 -1.869,-2.155c-0.817,-0.598 -2.14,-0.804 -3.037,-1.431c-0.897,-0.627 -2.186,-1.282 -2.346,-2.331c-0.159,-1.049 0.866,-3.006 1.387,-3.963c0.396,-0.729 1.753,-1.205 1.739,-1.781c-0.014,-0.576 -0.999,-1.669 -1.824,-1.674c-1.114,-0.008 -3.319,0.981 -4.859,1.631c-1.515,0.639 -2.882,2.026 -4.379,2.268c-1.498,0.243 -3.783,-0.27 -4.606,-0.813c-0.686,-0.453 -0.364,-1.623 -0.33,-2.444c0.036,-0.892 0.568,-2.054 0.551,-2.908c-0.015,-0.77 -0.603,-1.449 -0.654,-2.218c-0.054,-0.826 0.573,-1.851 0.328,-2.737c-0.294,-1.065 -1.561,-2.707 -2.095,-3.652c-0.377,-0.667 -1.064,-1.25 -1.107,-2.016c-0.052,-0.93 0.974,-2.361 0.793,-3.566c-0.186,-1.246 -0.962,-2.814 -1.911,-3.911c-1.054,-1.218 -3.117,-2.165 -4.407,-3.395c-1.255,-1.196 -2.748,-3.035 -3.337,-3.989c-0.306,-0.495 0.016,-1.194 -0.199,-1.736c-0.324,-0.821 -0.761,-2.614 -1.75,-3.19c-0.988,-0.576 -2.788,-0.17 -4.181,-0.264c-1.958,-0.133 -5.358,-0.227 -7.565,-0.532c-1.924,-0.266 -4.351,-0.585 -5.68,-1.301c-1.108,-0.597 -1.168,-2.437 -2.294,-2.996c-1.206,-0.6 -3.594,-0.405 -4.943,-0.6c-1.056,-0.153 -2.415,-0.093 -3.15,-0.573c-0.732,-0.48 -0.829,-1.544 -1.254,-2.31c-0.726,-1.308 -2.302,-4.406 -3.102,-5.539c-0.405,-0.574 -1.008,-1.105 -1.695,-1.254c-1.033,-0.223 -3.219,-0.328 -4.506,-0.085c-1.169,0.221 -2.087,1.175 -3.219,1.543c-1.548,0.504 -4.472,1.265 -6.071,1.478c-1.164,0.155 -2.352,-0.063 -3.519,-0.198c-1.299,-0.151 -3.156,-0.848 -4.274,-0.706c-0.958,0.122 -1.595,1.093 -2.44,1.56c-1.5,0.83 -5.014,3.042 -6.562,3.421c-0.958,0.235 -1.89,-0.771 -2.726,-1.146c-0.772,-0.347 -1.625,-0.998 -2.287,-1.105c-0.575,-0.094 -1.386,0.034 -1.685,0.46c-0.299,0.426 -0.14,1.396 -0.11,2.094c0.033,0.76 0.151,1.699 0.309,2.462c0.149,0.721 0.75,1.429 0.637,2.116c-0.114,0.687 -0.936,1.516 -1.321,2.004c-0.279,0.353 -0.555,0.799 -0.989,0.92c-0.745,0.209 -2.499,0.078 -3.478,0.331c-0.864,0.223 -1.56,0.883 -2.398,1.188c-0.899,0.326 -2.361,0.858 -2.996,0.772c-0.503,-0.068 -0.699,-0.793 -0.813,-1.288c-0.146,-0.639 0.203,-1.743 -0.066,-2.549c-0.312,-0.938 -1.128,-2.256 -1.808,-3.076c-0.623,-0.751 -1.408,-1.389 -2.271,-1.844c-0.911,-0.48 -2.354,-0.434 -3.194,-1.036c-0.84,-0.602 -1.326,-2.043 -1.847,-2.574c-0.33,-0.338 -0.806,-0.666 -1.276,-0.615c-0.715,0.077 -2.108,0.793 -3.015,1.078c-0.798,0.25 -1.604,0.492 -2.429,0.63c-0.874,0.145 -2.05,-0.084 -2.812,0.242c-0.753,0.323 -1.163,1.167 -1.761,1.717c-0.593,0.546 -1.443,0.885 -1.825,1.585c-0.381,0.7 -0.638,1.755 -0.462,2.613c0.175,0.858 0.914,1.78 1.515,2.533c0.601,0.751 1.36,1.525 2.095,1.984c0.69,0.431 1.535,0.539 2.315,0.771c0.812,0.242 1.935,0.304 2.56,0.681c0.565,0.341 0.61,1.269 1.191,1.582c0.76,0.411 2.219,0.728 3.37,0.882c1.153,0.155 2.841,-0.298 3.55,0.047c0.641,0.312 0.702,1.517 0.702,2.023c0,0.411 -0.419,0.714 -0.702,1.011c-0.614,0.643 -2.622,2.007 -2.977,2.845c-0.304,0.718 0.686,1.419 0.847,2.183c0.163,0.774 0.21,1.749 0.133,2.464c-0.069,0.636 -0.736,1.2 -0.596,1.824c0.144,0.638 0.967,1.455 1.455,2.001c0.433,0.484 1.407,0.628 1.475,1.274c0.073,0.698 -0.411,2.097 -1.036,2.919c-0.716,0.94 -2.226,2.078 -3.256,2.721c-0.888,0.554 -2.001,0.65 -2.927,1.138c-0.986,0.52 -1.907,1.476 -2.991,1.982c-1.147,0.535 -2.731,0.524 -3.894,1.232c-1.338,0.813 -2.833,2.35 -4.133,3.65c-1.304,1.304 -2.436,2.911 -3.693,4.173c-1.207,1.212 -2.909,2.22 -3.847,3.396c-0.847,1.06 -1.639,2.626 -1.786,3.657c-0.127,0.886 0.425,1.773 0.904,2.53c0.517,0.818 1.554,1.515 2.199,2.378c0.645,0.863 1.347,1.763 1.67,2.8c0.324,1.038 0.566,2.32 0.274,3.428c-0.304,1.151 -1.316,2.597 -2.095,3.478c-0.695,0.787 -1.738,1.177 -2.577,1.808c-1.008,0.759 -2.513,1.628 -3.475,2.748c-1.069,1.244 -1.984,3.69 -2.939,4.718c-0.714,0.769 -1.839,1.013 -2.792,1.453c-1.159,0.536 -2.952,0.869 -4.166,1.763c-1.364,1.004 -2.96,3.135 -4.013,4.259c-0.772,0.824 -1.616,1.588 -2.304,2.483c-0.721,0.939 -1.829,2.335 -2.023,3.15c-0.15,0.63 0.527,1.186 0.86,1.742c0.422,0.705 1.227,1.706 1.673,2.488c0.399,0.702 0.703,1.456 1.001,2.206c0.361,0.91 1.238,2.106 1.168,3.257c-0.081,1.329 -0.95,3.277 -1.655,4.713c-0.686,1.398 -1.893,2.499 -2.574,3.899c-0.794,1.634 -1.181,4.363 -2.192,5.9c-0.936,1.423 -3.034,2.08 -3.878,3.327c-0.808,1.193 -0.934,2.772 -1.187,4.155c-0.249,1.363 0.143,2.842 -0.331,4.145c-0.55,1.515 -2.487,3.654 -2.972,4.944c-0.327,0.873 -0.326,2.116 0.066,2.795c0.393,0.678 1.486,0.936 2.291,1.276c0.922,0.389 2.231,0.536 3.241,1.058c1.128,0.584 2.754,1.562 3.527,2.445c0.673,0.767 0.624,2.046 1.114,2.851c0.466,0.767 1.234,1.393 1.824,1.979c0.546,0.543 1.218,0.957 1.72,1.541c0.513,0.597 1.166,1.248 1.361,2.042c0.198,0.803 0.292,1.975 -0.176,2.775c-0.539,0.922 -2.081,1.836 -3.056,2.754c-0.952,0.896 -1.942,1.986 -2.792,2.753c-0.731,0.66 -1.558,1.207 -2.307,1.847c-0.799,0.681 -1.936,1.407 -2.486,2.243c-0.529,0.805 -0.731,1.813 -0.813,2.773c-0.125,1.468 -0.013,4.467 0.064,6.034c0.055,1.129 0.18,2.45 0.397,3.368c0.178,0.752 0.614,1.419 0.904,2.136c0.347,0.86 0.545,2.149 1.181,3.025c0.65,0.896 1.74,1.66 2.72,2.349c0.985,0.692 2.234,1.05 3.191,1.808c0.958,0.757 1.628,1.901 2.555,2.736c0.934,0.841 2.104,1.45 3.046,2.307c0.969,0.881 2.052,2.131 2.769,2.979c0.562,0.665 1.016,1.612 1.535,2.111c0.436,0.418 1.008,0.698 1.583,0.882c0.81,0.26 2.338,0.35 3.282,0.676c0.85,0.293 1.726,0.656 2.378,1.276c0.747,0.71 1.999,2.011 2.103,2.986c0.105,0.976 -1.482,1.898 -1.474,2.866c0.007,0.969 0.856,2.378 1.521,2.947c0.636,0.543 1.658,0.249 2.467,0.463c0.927,0.245 2.59,0.417 3.095,1.007c0.505,0.589 -0.134,1.689 -0.066,2.53c0.08,1.004 -0.195,2.732 0.551,3.495c0.745,0.762 2.872,0.616 3.922,1.079c0.891,0.393 2.184,0.949 2.378,1.698c0.195,0.749 -0.811,1.863 -1.212,2.797c-0.448,1.043 -1.156,2.4 -1.474,3.461c-0.282,0.939 -0.065,2.227 -0.436,2.907c-0.34,0.625 -1.172,1.192 -1.785,1.171c-0.614,-0.021 -1.149,-1.474 -1.894,-1.298c-1.027,0.242 -3.652,1.871 -4.269,2.75c-0.495,0.708 -0.045,2.008 0.571,2.528c0.615,0.52 2.065,0.526 3.122,0.592c1.218,0.077 3.165,-0.257 4.181,-0.132c0.698,0.085 1.241,0.919 1.916,0.879c0.674,-0.04 1.506,-1.076 2.133,-1.119c0.612,-0.042 1.459,0.501 1.629,0.86c0.169,0.359 -0.34,0.903 -0.612,1.295c-0.315,0.455 -1.066,0.855 -1.279,1.431c-0.213,0.576 0.162,1.37 0,2.025c-0.183,0.741 -1.052,1.741 -1.1,2.42c-0.043,0.613 0.313,1.297 0.813,1.654c0.596,0.425 1.995,0.649 2.764,0.898c0.616,0.2 1.205,0.53 1.849,0.595c0.814,0.084 2.036,-0.261 3.034,-0.096c1.109,0.183 2.354,1.055 3.616,1.193c1.312,0.144 2.976,-0.092 4.255,-0.33c1.176,-0.22 2.252,-0.829 3.417,-1.1c1.312,-0.306 2.971,-0.482 4.455,-0.733c1.635,-0.277 3.756,-0.688 5.352,-0.926c1.403,-0.21 3.026,-0.213 4.225,-0.507c1.046,-0.256 1.979,-0.848 2.974,-1.257c1.19,-0.489 2.811,-1.038 4.164,-1.676c1.411,-0.665 3.007,-1.325 4.299,-2.315c1.803,-1.38 4.728,-4.63 6.515,-5.966c1.249,-0.934 2.698,-1.649 4.206,-2.048c1.637,-0.433 4.006,-0.185 5.616,-0.551c1.42,-0.323 2.789,-0.938 4.046,-1.645c1.258,-0.707 2.503,-1.539 3.498,-2.597c1.252,-1.332 3.101,-3.351 4.019,-5.399c0.923,-2.059 0.876,-5.047 1.518,-6.958c0.539,-1.603 1.161,-3.287 2.334,-4.506c1.288,-1.338 3.762,-2.515 5.394,-3.522c1.437,-0.887 3.378,-1.738 4.397,-2.52c0.733,-0.563 1.423,-1.3 1.72,-2.175c0.327,-0.963 0.477,-2.678 0.242,-3.605c-0.209,-0.827 -1.423,-1.134 -1.65,-1.957c-0.309,-1.115 -0.275,-3.718 -0.202,-4.735c0.036,-0.501 0.654,-0.862 0.639,-1.364c-0.018,-0.594 -0.542,-1.451 -0.747,-2.197c-0.232,-0.843 -0.72,-1.886 -0.645,-2.86c0.088,-1.126 0.907,-2.633 1.169,-3.892c0.25,-1.202 0.165,-2.794 0.402,-3.661c0.162,-0.592 1.094,-0.928 1.017,-1.537c-0.088,-0.697 -0.83,-1.914 -1.546,-2.641c-0.72,-0.73 -1.902,-1.083 -2.773,-1.741c-0.987,-0.747 -2.557,-1.841 -3.151,-2.737c-0.492,-0.741 -0.688,-1.791 -0.414,-2.637c0.298,-0.919 1.684,-1.786 2.199,-2.878c0.549,-1.163 0.531,-3.099 1.095,-4.102c0.488,-0.868 1.86,-1.062 2.29,-1.918c0.43,-0.856 0.424,-2.196 0.289,-3.219c-0.134,-1.023 -0.942,-1.893 -1.097,-2.921c-0.17,-1.139 0.061,-2.676 0.073,-3.911c0.011,-1.167 -0.011,-2.524 0,-3.5c0.008,-0.785 -0.138,-1.596 0.062,-2.355c0.2,-0.766 0.626,-2.046 1.142,-2.237ZM178.439,436.612c0.197,-0.957 0.675,-1.932 1.007,-2.751c0.298,-0.735 0.713,-1.43 0.987,-2.164c0.273,-0.729 0.311,-1.706 0.66,-2.238c0.314,-0.481 0.919,-0.959 1.431,-0.958c0.512,0.001 1.299,0.462 1.643,0.963c0.345,0.502 0.373,1.359 0.424,2.044c0.052,0.685 0.09,1.406 -0.114,2.065c-0.252,0.811 -1.118,1.942 -1.393,2.8c-0.241,0.751 -0.447,1.585 -0.259,2.35c0.196,0.8 1.114,1.707 1.436,2.447c0.274,0.629 0.278,1.348 0.498,1.997c0.233,0.686 0.795,1.356 0.898,2.115c0.103,0.759 -0.006,1.788 -0.28,2.441c-0.258,0.618 -0.742,1.222 -1.36,1.479c-0.65,0.27 -2.072,0.701 -2.539,0.141c-0.467,-0.56 0.166,-2.501 -0.262,-3.499c-0.428,-0.997 -1.796,-1.535 -2.306,-2.488c-0.51,-0.954 -0.676,-2.128 -0.753,-3.231c-0.079,-1.124 0.067,-2.469 0.282,-3.513ZM217.489,368.973c-0.185,-0.345 0.154,-1.102 0.375,-1.604c0.292,-0.66 0.82,-1.635 1.373,-2.356c0.575,-0.751 1.554,-1.906 2.082,-2.149c0.389,-0.179 1.041,0.294 1.083,0.692c0.042,0.398 -0.7,1.116 -0.829,1.696c-0.13,0.58 0.058,1.335 0.052,1.785c-0.004,0.306 0.06,0.646 -0.087,0.914c-0.162,0.294 -0.531,0.644 -0.884,0.849c-0.427,0.248 -1.155,0.613 -1.682,0.642c-0.518,0.029 -1.299,-0.123 -1.483,-0.469ZM210.293,366.722c-0.596,-0.313 -1.449,-1.221 -1.749,-1.954c-0.301,-0.734 -0.171,-1.783 -0.053,-2.447c0.1,-0.563 0.425,-1.074 0.76,-1.537c0.413,-0.571 1.092,-1.641 1.72,-1.889c0.627,-0.248 1.605,0.055 2.047,0.399c0.442,0.345 0.554,1.078 0.606,1.668c0.063,0.717 -0.001,1.959 -0.226,2.635c-0.19,0.573 -0.91,0.912 -1.123,1.42c-0.21,0.502 0.176,1.342 -0.154,1.626c-0.33,0.284 -1.288,0.362 -1.828,0.079ZM90.757,359.493c-0.087,0.658 0.911,2.572 1.456,2.781c0.546,0.209 1.73,-0.866 1.816,-1.525c0.087,-0.658 -0.751,-2.216 -1.297,-2.426c-0.545,-0.209 -1.889,0.511 -1.975,1.17ZM98.866,358.108c-0.094,0.21 1.2,1.115 1.552,1.085c0.353,-0.03 0.822,-1.084 0.564,-1.265c-0.259,-0.181 -2.022,-0.031 -2.116,0.18ZM94.245,354.971c-0.293,0.387 -0.115,1.545 0.187,2.103c0.302,0.558 1.035,1.361 1.625,1.245c0.59,-0.117 1.893,-1.348 1.915,-1.944c0.022,-0.595 -1.162,-1.394 -1.784,-1.628c-0.61,-0.23 -1.65,-0.164 -1.943,0.224ZM86.092,350.91c-0.265,0.508 -0.035,1.679 0.224,2.318c0.252,0.623 0.81,1.264 1.329,1.517c0.518,0.253 1.486,0.365 1.784,0c0.297,-0.365 0.231,-1.498 0,-2.191c-0.254,-0.761 -0.969,-2.101 -1.525,-2.375c-0.556,-0.274 -1.547,0.223 -1.812,0.731ZM102.573,352.126c-0.001,0.275 0.824,1.177 1.205,1.241c0.381,0.064 1.081,-0.583 1.081,-0.858c0.001,-0.276 -0.696,-0.731 -1.077,-0.794c-0.381,-0.064 -1.209,0.135 -1.209,0.411ZM90.104,332.871c-0.457,0.37 -1.012,3.529 -1.565,4.553c-0.373,0.693 -1.489,0.845 -1.748,1.588c-0.419,1.205 -1.159,4.71 -0.766,5.639c0.394,0.929 2.267,-0.393 3.129,-0.064c0.862,0.329 1.208,1.928 2.043,2.039c0.835,0.111 2.624,-0.676 2.965,-1.373c0.341,-0.696 -1.02,-1.864 -0.918,-2.805c0.101,-0.94 1.076,-1.862 1.528,-2.837c0.478,-1.03 1.282,-2.55 1.337,-3.344c0.04,-0.578 -0.62,-1.658 -1.006,-1.417c-0.386,0.241 -0.672,2.807 -1.309,2.865c-0.637,0.059 -1.899,-1.707 -2.514,-2.514c-0.527,-0.692 -0.719,-2.701 -1.176,-2.33ZM98.454,332.91c0.255,0.299 1.076,0.285 1.305,0c0.228,-0.284 0.319,-1.406 0.063,-1.704c-0.255,-0.298 -1.367,-0.368 -1.595,-0.084c-0.229,0.284 -0.029,1.49 0.227,1.788ZM92.373,331.418c0.27,0.44 1.917,1.481 2.319,1.397c0.402,-0.085 0.365,-1.464 0.095,-1.904c-0.269,-0.44 -1.309,-0.819 -1.711,-0.734c-0.403,0.084 -0.951,0.836 -0.703,1.241Z" style="fill:#fff;stroke-width:0.75px;stroke:#422b15;"/></g></svg>